<mxfile host="app.diagrams.net" agent="Mozilla/5.0 (Windows NT 10.0; Win64; x64) AppleWebKit/537.36 (KHTML, like Gecko) Chrome/131.0.0.0 Safari/537.36" version="25.0.1">
  <diagram name="第 1 页" id="lEoJY4vEKz3rgUccrXzJ">
    <mxGraphModel dx="2901" dy="2309" grid="1" gridSize="10" guides="1" tooltips="1" connect="1" arrows="1" fold="1" page="1" pageScale="1" pageWidth="827" pageHeight="1169" math="0" shadow="0">
      <root>
        <mxCell id="0" />
        <mxCell id="1" parent="0" />
        <mxCell id="BJYVsuKNDV1E6xhOOfb5-1" value="&lt;font style=&quot;font-size: 14px;&quot;&gt;用户&lt;/font&gt;" style="rounded=0;whiteSpace=wrap;html=1;fillColor=#0066CC;strokeColor=#6c8ebf;fillStyle=hatch;" parent="1" vertex="1">
          <mxGeometry x="260" y="120" width="100" height="50" as="geometry" />
        </mxCell>
        <mxCell id="BJYVsuKNDV1E6xhOOfb5-2" value="&lt;font style=&quot;font-size: 14px;&quot;&gt;名称&lt;/font&gt;" style="ellipse;whiteSpace=wrap;html=1;fillColor=#d5e8d4;strokeColor=#82b366;fillStyle=hatch;" parent="1" vertex="1">
          <mxGeometry x="50" y="170" width="100" height="60" as="geometry" />
        </mxCell>
        <mxCell id="BJYVsuKNDV1E6xhOOfb5-4" value="&lt;font style=&quot;font-size: 14px;&quot;&gt;邮箱&lt;/font&gt;" style="ellipse;whiteSpace=wrap;html=1;fillColor=#d5e8d4;strokeColor=#82b366;fillStyle=hatch;" parent="1" vertex="1">
          <mxGeometry x="530" y="170" width="100" height="60" as="geometry" />
        </mxCell>
        <mxCell id="BJYVsuKNDV1E6xhOOfb5-5" value="&lt;font style=&quot;font-size: 14px;&quot;&gt;密码&lt;/font&gt;" style="ellipse;whiteSpace=wrap;html=1;fillColor=#d5e8d4;strokeColor=#82b366;fillStyle=hatch;" parent="1" vertex="1">
          <mxGeometry x="640" y="140" width="100" height="60" as="geometry" />
        </mxCell>
        <mxCell id="BJYVsuKNDV1E6xhOOfb5-6" value="&lt;font style=&quot;font-size: 14px;&quot;&gt;邮箱&lt;/font&gt;" style="ellipse;whiteSpace=wrap;html=1;fillColor=#d5e8d4;strokeColor=#82b366;fillStyle=hatch;" parent="1" vertex="1">
          <mxGeometry x="416" y="-40" width="100" height="60" as="geometry" />
        </mxCell>
        <mxCell id="BJYVsuKNDV1E6xhOOfb5-7" value="&lt;font style=&quot;font-size: 14px;&quot;&gt;菜币数&lt;/font&gt;" style="ellipse;whiteSpace=wrap;html=1;fillColor=#d5e8d4;strokeColor=#82b366;fillStyle=hatch;" parent="1" vertex="1">
          <mxGeometry x="460" y="25" width="100" height="60" as="geometry" />
        </mxCell>
        <mxCell id="BJYVsuKNDV1E6xhOOfb5-8" value="&lt;font style=&quot;font-size: 14px;&quot;&gt;个性签名&lt;/font&gt;" style="ellipse;whiteSpace=wrap;html=1;fillColor=#d5e8d4;strokeColor=#82b366;fillStyle=hatch;" parent="1" vertex="1">
          <mxGeometry x="320" width="100" height="60" as="geometry" />
        </mxCell>
        <mxCell id="BJYVsuKNDV1E6xhOOfb5-9" value="&lt;font style=&quot;font-size: 14px;&quot;&gt;身份&lt;/font&gt;" style="ellipse;whiteSpace=wrap;html=1;fillColor=#d5e8d4;strokeColor=#82b366;fillStyle=hatch;" parent="1" vertex="1">
          <mxGeometry x="540" y="90" width="100" height="60" as="geometry" />
        </mxCell>
        <mxCell id="BJYVsuKNDV1E6xhOOfb5-10" value="&lt;font style=&quot;font-size: 14px;&quot;&gt;头像&lt;/font&gt;" style="ellipse;whiteSpace=wrap;html=1;fillColor=#d5e8d4;strokeColor=#82b366;fillStyle=hatch;" parent="1" vertex="1">
          <mxGeometry x="-70" y="130" width="100" height="60" as="geometry" />
        </mxCell>
        <mxCell id="BJYVsuKNDV1E6xhOOfb5-11" value="&lt;font style=&quot;font-size: 14px;&quot;&gt;消息&lt;/font&gt;" style="rounded=0;whiteSpace=wrap;html=1;fillColor=#0066CC;strokeColor=#6c8ebf;fillStyle=hatch;" parent="1" vertex="1">
          <mxGeometry x="80" y="-240" width="100" height="50" as="geometry" />
        </mxCell>
        <mxCell id="BJYVsuKNDV1E6xhOOfb5-12" value="&lt;font style=&quot;font-size: 14px;&quot;&gt;&lt;u&gt;ID&lt;/u&gt;&lt;/font&gt;" style="ellipse;whiteSpace=wrap;html=1;fillColor=#d5e8d4;strokeColor=#82b366;fillStyle=hatch;" parent="1" vertex="1">
          <mxGeometry x="570" y="20" width="100" height="60" as="geometry" />
        </mxCell>
        <mxCell id="BJYVsuKNDV1E6xhOOfb5-14" value="&lt;font style=&quot;font-size: 14px;&quot;&gt;类型&lt;/font&gt;" style="ellipse;whiteSpace=wrap;html=1;fillColor=#d5e8d4;strokeColor=#82b366;fillStyle=hatch;" parent="1" vertex="1">
          <mxGeometry x="80" y="-350" width="100" height="60" as="geometry" />
        </mxCell>
        <mxCell id="BJYVsuKNDV1E6xhOOfb5-15" value="&lt;font style=&quot;font-size: 14px;&quot;&gt;状态&lt;/font&gt;" style="ellipse;whiteSpace=wrap;html=1;fillColor=#d5e8d4;strokeColor=#82b366;fillStyle=hatch;" parent="1" vertex="1">
          <mxGeometry x="-60" y="-110" width="100" height="60" as="geometry" />
        </mxCell>
        <mxCell id="BJYVsuKNDV1E6xhOOfb5-16" value="&lt;span style=&quot;font-size: 14px;&quot;&gt;内容&lt;/span&gt;" style="ellipse;whiteSpace=wrap;html=1;fillColor=#d5e8d4;strokeColor=#82b366;fillStyle=hatch;" parent="1" vertex="1">
          <mxGeometry x="-60" y="-350" width="100" height="60" as="geometry" />
        </mxCell>
        <mxCell id="BJYVsuKNDV1E6xhOOfb5-17" value="&lt;font style=&quot;font-size: 14px;&quot;&gt;公告&lt;/font&gt;" style="rounded=0;whiteSpace=wrap;html=1;fillColor=#0066CC;strokeColor=#6c8ebf;fillStyle=hatch;" parent="1" vertex="1">
          <mxGeometry x="260" y="-500" width="100" height="50" as="geometry" />
        </mxCell>
        <mxCell id="BJYVsuKNDV1E6xhOOfb5-18" value="&lt;font style=&quot;font-size: 14px;&quot;&gt;&lt;u&gt;ID&lt;/u&gt;&lt;/font&gt;" style="ellipse;whiteSpace=wrap;html=1;fillColor=#d5e8d4;strokeColor=#82b366;fillStyle=hatch;" parent="1" vertex="1">
          <mxGeometry x="260" y="-610" width="100" height="60" as="geometry" />
        </mxCell>
        <mxCell id="BJYVsuKNDV1E6xhOOfb5-19" value="&lt;font style=&quot;font-size: 14px;&quot;&gt;内容&lt;/font&gt;" style="ellipse;whiteSpace=wrap;html=1;fillColor=#d5e8d4;strokeColor=#82b366;fillStyle=hatch;" parent="1" vertex="1">
          <mxGeometry x="420" y="-505" width="100" height="60" as="geometry" />
        </mxCell>
        <mxCell id="BJYVsuKNDV1E6xhOOfb5-20" value="&lt;font style=&quot;font-size: 14px;&quot;&gt;创建时间&lt;/font&gt;" style="ellipse;whiteSpace=wrap;html=1;fillColor=#d5e8d4;strokeColor=#82b366;fillStyle=hatch;" parent="1" vertex="1">
          <mxGeometry x="100" y="-505" width="100" height="60" as="geometry" />
        </mxCell>
        <mxCell id="BJYVsuKNDV1E6xhOOfb5-21" value="&lt;font style=&quot;font-size: 14px;&quot;&gt;标签&lt;/font&gt;" style="rounded=0;whiteSpace=wrap;html=1;fillColor=#0066CC;strokeColor=#6c8ebf;fillStyle=hatch;" parent="1" vertex="1">
          <mxGeometry x="240" y="1100" width="100" height="50" as="geometry" />
        </mxCell>
        <mxCell id="BJYVsuKNDV1E6xhOOfb5-22" value="&lt;font style=&quot;font-size: 14px;&quot;&gt;&lt;u&gt;ID&lt;/u&gt;&lt;/font&gt;" style="ellipse;whiteSpace=wrap;html=1;fillColor=#d5e8d4;strokeColor=#82b366;fillStyle=hatch;" parent="1" vertex="1">
          <mxGeometry x="240" y="990" width="100" height="60" as="geometry" />
        </mxCell>
        <mxCell id="BJYVsuKNDV1E6xhOOfb5-23" value="&lt;font style=&quot;font-size: 14px;&quot;&gt;名称&lt;/font&gt;" style="ellipse;whiteSpace=wrap;html=1;fillColor=#d5e8d4;strokeColor=#82b366;fillStyle=hatch;" parent="1" vertex="1">
          <mxGeometry x="240" y="1200" width="100" height="60" as="geometry" />
        </mxCell>
        <mxCell id="BJYVsuKNDV1E6xhOOfb5-24" value="&lt;font style=&quot;font-size: 14px;&quot;&gt;共享贴&lt;/font&gt;" style="rounded=0;whiteSpace=wrap;html=1;fillColor=#0066CC;strokeColor=#6c8ebf;fillStyle=hatch;" parent="1" vertex="1">
          <mxGeometry x="-300" y="670" width="100" height="50" as="geometry" />
        </mxCell>
        <mxCell id="BJYVsuKNDV1E6xhOOfb5-25" value="&lt;font style=&quot;font-size: 14px;&quot;&gt;&lt;u&gt;ID&lt;/u&gt;&lt;/font&gt;" style="ellipse;whiteSpace=wrap;html=1;fillColor=#d5e8d4;strokeColor=#82b366;fillStyle=hatch;" parent="1" vertex="1">
          <mxGeometry x="-430" y="616.25" width="100" height="60" as="geometry" />
        </mxCell>
        <mxCell id="BJYVsuKNDV1E6xhOOfb5-26" value="&lt;font style=&quot;font-size: 14px;&quot;&gt;标题&lt;/font&gt;" style="ellipse;whiteSpace=wrap;html=1;fillColor=#d5e8d4;strokeColor=#82b366;fillStyle=hatch;" parent="1" vertex="1">
          <mxGeometry x="-450" y="830" width="100" height="60" as="geometry" />
        </mxCell>
        <mxCell id="BJYVsuKNDV1E6xhOOfb5-27" value="&lt;font style=&quot;font-size: 14px;&quot;&gt;价格&lt;/font&gt;" style="ellipse;whiteSpace=wrap;html=1;fillColor=#d5e8d4;strokeColor=#82b366;fillStyle=hatch;" parent="1" vertex="1">
          <mxGeometry x="-540" y="616.25" width="100" height="60" as="geometry" />
        </mxCell>
        <mxCell id="BJYVsuKNDV1E6xhOOfb5-28" value="&lt;font style=&quot;font-size: 14px;&quot;&gt;内容&lt;/font&gt;" style="ellipse;whiteSpace=wrap;html=1;fillColor=#d5e8d4;strokeColor=#82b366;fillStyle=hatch;" parent="1" vertex="1">
          <mxGeometry x="-350" y="890" width="100" height="60" as="geometry" />
        </mxCell>
        <mxCell id="BJYVsuKNDV1E6xhOOfb5-29" value="&lt;font style=&quot;font-size: 14px;&quot;&gt;价格&lt;/font&gt;" style="ellipse;whiteSpace=wrap;html=1;fillColor=#d5e8d4;strokeColor=#82b366;fillStyle=hatch;" parent="1" vertex="1">
          <mxGeometry x="-590" y="840" width="100" height="60" as="geometry" />
        </mxCell>
        <mxCell id="BJYVsuKNDV1E6xhOOfb5-30" value="&lt;font style=&quot;font-size: 14px;&quot;&gt;收藏数&lt;/font&gt;" style="ellipse;whiteSpace=wrap;html=1;fillColor=#d5e8d4;strokeColor=#82b366;fillStyle=hatch;" parent="1" vertex="1">
          <mxGeometry x="-530" y="770" width="100" height="60" as="geometry" />
        </mxCell>
        <mxCell id="BJYVsuKNDV1E6xhOOfb5-31" value="&lt;font style=&quot;font-size: 14px;&quot;&gt;收到的打赏&lt;/font&gt;" style="ellipse;whiteSpace=wrap;html=1;fillColor=#d5e8d4;strokeColor=#82b366;fillStyle=hatch;" parent="1" vertex="1">
          <mxGeometry x="-290" y="960" width="100" height="60" as="geometry" />
        </mxCell>
        <mxCell id="BJYVsuKNDV1E6xhOOfb5-32" value="&lt;font style=&quot;font-size: 14px;&quot;&gt;收到的踩&lt;/font&gt;" style="ellipse;whiteSpace=wrap;html=1;fillColor=#d5e8d4;strokeColor=#82b366;fillStyle=hatch;" parent="1" vertex="1">
          <mxGeometry x="-210" y="820" width="100" height="60" as="geometry" />
        </mxCell>
        <mxCell id="BJYVsuKNDV1E6xhOOfb5-33" value="&lt;font style=&quot;font-size: 14px;&quot;&gt;简介&lt;/font&gt;" style="ellipse;whiteSpace=wrap;html=1;fillColor=#d5e8d4;strokeColor=#82b366;fillStyle=hatch;" parent="1" vertex="1">
          <mxGeometry x="-640" y="650" width="100" height="60" as="geometry" />
        </mxCell>
        <mxCell id="BJYVsuKNDV1E6xhOOfb5-34" value="&lt;font style=&quot;font-size: 14px;&quot;&gt;资源路径&lt;/font&gt;" style="ellipse;whiteSpace=wrap;html=1;fillColor=#d5e8d4;strokeColor=#82b366;fillStyle=hatch;" parent="1" vertex="1">
          <mxGeometry x="-460" y="920" width="100" height="60" as="geometry" />
        </mxCell>
        <mxCell id="BJYVsuKNDV1E6xhOOfb5-35" value="&lt;font style=&quot;font-size: 14px;&quot;&gt;点赞数&lt;/font&gt;" style="ellipse;whiteSpace=wrap;html=1;fillColor=#d5e8d4;strokeColor=#82b366;fillStyle=hatch;" parent="1" vertex="1">
          <mxGeometry x="-640" y="750" width="100" height="60" as="geometry" />
        </mxCell>
        <mxCell id="BJYVsuKNDV1E6xhOOfb5-37" value="&lt;font style=&quot;font-size: 14px;&quot;&gt;&lt;u&gt;ID&lt;/u&gt;&lt;/font&gt;" style="ellipse;whiteSpace=wrap;html=1;fillColor=#d5e8d4;strokeColor=#82b366;fillStyle=hatch;" parent="1" vertex="1">
          <mxGeometry x="-110" y="350" width="100" height="60" as="geometry" />
        </mxCell>
        <mxCell id="BJYVsuKNDV1E6xhOOfb5-38" value="&lt;font style=&quot;font-size: 14px;&quot;&gt;类型&lt;/font&gt;" style="ellipse;whiteSpace=wrap;html=1;fillColor=#d5e8d4;strokeColor=#82b366;fillStyle=hatch;" parent="1" vertex="1">
          <mxGeometry x="-180" y="410" width="100" height="60" as="geometry" />
        </mxCell>
        <mxCell id="BJYVsuKNDV1E6xhOOfb5-39" value="&lt;font style=&quot;font-size: 14px;&quot;&gt;创建时间&lt;/font&gt;" style="ellipse;whiteSpace=wrap;html=1;fillColor=#d5e8d4;strokeColor=#82b366;fillStyle=hatch;" parent="1" vertex="1">
          <mxGeometry x="-180" y="490" width="100" height="60" as="geometry" />
        </mxCell>
        <mxCell id="BJYVsuKNDV1E6xhOOfb5-40" value="&lt;font style=&quot;font-size: 14px;&quot;&gt;内容&lt;/font&gt;" style="ellipse;whiteSpace=wrap;html=1;fillColor=#d5e8d4;strokeColor=#82b366;fillStyle=hatch;" parent="1" vertex="1">
          <mxGeometry x="-110" y="550" width="100" height="60" as="geometry" />
        </mxCell>
        <mxCell id="BJYVsuKNDV1E6xhOOfb5-41" value="&lt;font style=&quot;font-size: 14px;&quot;&gt;任务贴&lt;/font&gt;" style="rounded=0;whiteSpace=wrap;html=1;fillColor=#0066CC;strokeColor=#6c8ebf;fillStyle=hatch;" parent="1" vertex="1">
          <mxGeometry x="850" y="670" width="90" height="50" as="geometry" />
        </mxCell>
        <mxCell id="BJYVsuKNDV1E6xhOOfb5-42" value="&lt;font style=&quot;font-size: 14px;&quot;&gt;&lt;u&gt;ID&lt;/u&gt;&lt;/font&gt;" style="ellipse;whiteSpace=wrap;html=1;fillColor=#d5e8d4;strokeColor=#82b366;fillStyle=hatch;" parent="1" vertex="1">
          <mxGeometry x="1031" y="690" width="100" height="60" as="geometry" />
        </mxCell>
        <mxCell id="BJYVsuKNDV1E6xhOOfb5-43" value="&lt;font style=&quot;font-size: 14px;&quot;&gt;标题&lt;/font&gt;" style="ellipse;whiteSpace=wrap;html=1;fillColor=#d5e8d4;strokeColor=#82b366;fillStyle=hatch;" parent="1" vertex="1">
          <mxGeometry x="990" y="590" width="100" height="60" as="geometry" />
        </mxCell>
        <mxCell id="BJYVsuKNDV1E6xhOOfb5-44" value="&lt;font style=&quot;font-size: 14px;&quot;&gt;悬赏&lt;/font&gt;" style="ellipse;whiteSpace=wrap;html=1;fillColor=#d5e8d4;strokeColor=#82b366;fillStyle=hatch;" parent="1" vertex="1">
          <mxGeometry x="924" y="830" width="100" height="60" as="geometry" />
        </mxCell>
        <mxCell id="BJYVsuKNDV1E6xhOOfb5-45" value="&lt;font style=&quot;font-size: 14px;&quot;&gt;内容&lt;/font&gt;" style="ellipse;whiteSpace=wrap;html=1;fillColor=#d5e8d4;strokeColor=#82b366;fillStyle=hatch;" parent="1" vertex="1">
          <mxGeometry x="794" y="830" width="100" height="60" as="geometry" />
        </mxCell>
        <mxCell id="BJYVsuKNDV1E6xhOOfb5-46" value="&lt;font style=&quot;font-size: 14px;&quot;&gt;创建时间&lt;/font&gt;" style="ellipse;whiteSpace=wrap;html=1;fillColor=#d5e8d4;strokeColor=#82b366;fillStyle=hatch;" parent="1" vertex="1">
          <mxGeometry x="740" y="750" width="100" height="60" as="geometry" />
        </mxCell>
        <mxCell id="BJYVsuKNDV1E6xhOOfb5-50" value="&lt;font style=&quot;font-size: 14px;&quot;&gt;简介&lt;/font&gt;" style="ellipse;whiteSpace=wrap;html=1;fillColor=#d5e8d4;strokeColor=#82b366;fillStyle=hatch;" parent="1" vertex="1">
          <mxGeometry x="970" y="750" width="100" height="60" as="geometry" />
        </mxCell>
        <mxCell id="BJYVsuKNDV1E6xhOOfb5-53" value="&lt;font style=&quot;font-size: 14px;&quot;&gt;封面&lt;/font&gt;" style="ellipse;whiteSpace=wrap;html=1;fillColor=#d5e8d4;strokeColor=#82b366;fillStyle=hatch;" parent="1" vertex="1">
          <mxGeometry x="-560" y="690" width="100" height="60" as="geometry" />
        </mxCell>
        <mxCell id="BJYVsuKNDV1E6xhOOfb5-54" value="&lt;font style=&quot;font-size: 14px;&quot;&gt;封面&lt;/font&gt;" style="ellipse;whiteSpace=wrap;html=1;fillColor=#d5e8d4;strokeColor=#82b366;fillStyle=hatch;" parent="1" vertex="1">
          <mxGeometry x="1120" y="635" width="100" height="60" as="geometry" />
        </mxCell>
        <mxCell id="BJYVsuKNDV1E6xhOOfb5-55" value="&lt;font style=&quot;font-size: 14px;&quot;&gt;创建时间&lt;/font&gt;" style="ellipse;whiteSpace=wrap;html=1;fillColor=#d5e8d4;strokeColor=#82b366;fillStyle=hatch;" parent="1" vertex="1">
          <mxGeometry x="-230" y="890" width="100" height="60" as="geometry" />
        </mxCell>
        <mxCell id="BJYVsuKNDV1E6xhOOfb5-61" value="" style="endArrow=none;html=1;rounded=0;entryX=0;entryY=0.5;entryDx=0;entryDy=0;" parent="1" source="BJYVsuKNDV1E6xhOOfb5-20" target="BJYVsuKNDV1E6xhOOfb5-17" edge="1">
          <mxGeometry width="50" height="50" relative="1" as="geometry">
            <mxPoint x="220" y="-390" as="sourcePoint" />
            <mxPoint x="270" y="-440" as="targetPoint" />
          </mxGeometry>
        </mxCell>
        <mxCell id="BJYVsuKNDV1E6xhOOfb5-62" value="" style="endArrow=none;html=1;rounded=0;entryX=0.5;entryY=1;entryDx=0;entryDy=0;exitX=0.5;exitY=0;exitDx=0;exitDy=0;" parent="1" source="BJYVsuKNDV1E6xhOOfb5-17" target="BJYVsuKNDV1E6xhOOfb5-18" edge="1">
          <mxGeometry width="50" height="50" relative="1" as="geometry">
            <mxPoint x="320" y="-390" as="sourcePoint" />
            <mxPoint x="320" y="-440" as="targetPoint" />
          </mxGeometry>
        </mxCell>
        <mxCell id="BJYVsuKNDV1E6xhOOfb5-63" value="" style="endArrow=none;html=1;rounded=0;entryX=0;entryY=0.5;entryDx=0;entryDy=0;exitX=1;exitY=0.5;exitDx=0;exitDy=0;" parent="1" source="BJYVsuKNDV1E6xhOOfb5-17" target="BJYVsuKNDV1E6xhOOfb5-19" edge="1">
          <mxGeometry width="50" height="50" relative="1" as="geometry">
            <mxPoint x="320" y="-490" as="sourcePoint" />
            <mxPoint x="320" y="-540" as="targetPoint" />
          </mxGeometry>
        </mxCell>
        <mxCell id="BJYVsuKNDV1E6xhOOfb5-64" value="&lt;font style=&quot;font-size: 14px;&quot;&gt;&lt;u&gt;ID&lt;/u&gt;&lt;/font&gt;" style="ellipse;whiteSpace=wrap;html=1;fillColor=#d5e8d4;strokeColor=#82b366;fillStyle=hatch;" parent="1" vertex="1">
          <mxGeometry x="80" y="-110" width="100" height="60" as="geometry" />
        </mxCell>
        <mxCell id="BJYVsuKNDV1E6xhOOfb5-65" value="" style="endArrow=none;html=1;rounded=0;entryX=0;entryY=0;entryDx=0;entryDy=0;exitX=1;exitY=1;exitDx=0;exitDy=0;" parent="1" source="BJYVsuKNDV1E6xhOOfb5-16" target="BJYVsuKNDV1E6xhOOfb5-11" edge="1">
          <mxGeometry width="50" height="50" relative="1" as="geometry">
            <mxPoint x="-10" y="-280" as="sourcePoint" />
            <mxPoint x="59.999999999999545" y="-239.99999999999977" as="targetPoint" />
          </mxGeometry>
        </mxCell>
        <mxCell id="BJYVsuKNDV1E6xhOOfb5-66" value="" style="endArrow=none;html=1;rounded=0;entryX=0.5;entryY=0;entryDx=0;entryDy=0;exitX=0.5;exitY=1;exitDx=0;exitDy=0;" parent="1" source="BJYVsuKNDV1E6xhOOfb5-14" target="BJYVsuKNDV1E6xhOOfb5-11" edge="1">
          <mxGeometry width="50" height="50" relative="1" as="geometry">
            <mxPoint x="60" y="-280" as="sourcePoint" />
            <mxPoint x="140" y="-230" as="targetPoint" />
          </mxGeometry>
        </mxCell>
        <mxCell id="BJYVsuKNDV1E6xhOOfb5-67" value="" style="endArrow=none;html=1;rounded=0;entryX=0.5;entryY=1;entryDx=0;entryDy=0;exitX=0.5;exitY=0;exitDx=0;exitDy=0;" parent="1" source="BJYVsuKNDV1E6xhOOfb5-64" target="BJYVsuKNDV1E6xhOOfb5-11" edge="1">
          <mxGeometry width="50" height="50" relative="1" as="geometry">
            <mxPoint x="210" y="-280" as="sourcePoint" />
            <mxPoint x="140" y="-230" as="targetPoint" />
          </mxGeometry>
        </mxCell>
        <mxCell id="BJYVsuKNDV1E6xhOOfb5-68" value="" style="endArrow=none;html=1;rounded=0;entryX=1;entryY=0;entryDx=0;entryDy=0;exitX=0;exitY=1;exitDx=0;exitDy=0;" parent="1" source="BJYVsuKNDV1E6xhOOfb5-11" target="BJYVsuKNDV1E6xhOOfb5-15" edge="1">
          <mxGeometry width="50" height="50" relative="1" as="geometry">
            <mxPoint x="250" y="-205" as="sourcePoint" />
            <mxPoint x="190" y="-205" as="targetPoint" />
          </mxGeometry>
        </mxCell>
        <mxCell id="BJYVsuKNDV1E6xhOOfb5-69" value="&lt;font style=&quot;font-size: 14px;&quot;&gt;收到&lt;/font&gt;" style="rhombus;whiteSpace=wrap;html=1;fillColor=#FFB366;fontColor=#333333;strokeColor=#666666;fillStyle=hatch;" parent="1" vertex="1">
          <mxGeometry x="250" y="-160" width="120" height="50" as="geometry" />
        </mxCell>
        <mxCell id="BJYVsuKNDV1E6xhOOfb5-70" value="" style="endArrow=none;html=1;rounded=0;exitX=0;exitY=0.5;exitDx=0;exitDy=0;entryX=0.75;entryY=1;entryDx=0;entryDy=0;" parent="1" source="BJYVsuKNDV1E6xhOOfb5-69" target="BJYVsuKNDV1E6xhOOfb5-11" edge="1">
          <mxGeometry width="50" height="50" relative="1" as="geometry">
            <mxPoint x="690" y="62.5" as="sourcePoint" />
            <mxPoint x="200" y="-205" as="targetPoint" />
            <Array as="points">
              <mxPoint x="155" y="-135" />
            </Array>
          </mxGeometry>
        </mxCell>
        <mxCell id="BJYVsuKNDV1E6xhOOfb5-75" value="&lt;font style=&quot;font-size: 14px;&quot;&gt;n&lt;/font&gt;" style="edgeLabel;html=1;align=center;verticalAlign=middle;resizable=0;points=[];" parent="BJYVsuKNDV1E6xhOOfb5-70" vertex="1" connectable="0">
          <mxGeometry x="-0.08" y="-1" relative="1" as="geometry">
            <mxPoint x="52" y="-11" as="offset" />
          </mxGeometry>
        </mxCell>
        <mxCell id="BJYVsuKNDV1E6xhOOfb5-71" value="" style="endArrow=none;html=1;rounded=0;exitX=0.5;exitY=0;exitDx=0;exitDy=0;entryX=0.5;entryY=1;entryDx=0;entryDy=0;" parent="1" source="BJYVsuKNDV1E6xhOOfb5-1" target="BJYVsuKNDV1E6xhOOfb5-69" edge="1">
          <mxGeometry width="50" height="50" relative="1" as="geometry">
            <mxPoint x="-270.5" y="480" as="sourcePoint" />
            <mxPoint x="-250" y="440" as="targetPoint" />
          </mxGeometry>
        </mxCell>
        <mxCell id="BJYVsuKNDV1E6xhOOfb5-77" value="&lt;font style=&quot;font-size: 14px;&quot;&gt;1&lt;/font&gt;" style="edgeLabel;html=1;align=center;verticalAlign=middle;resizable=0;points=[];" parent="BJYVsuKNDV1E6xhOOfb5-71" vertex="1" connectable="0">
          <mxGeometry x="0.0533" y="-1" relative="1" as="geometry">
            <mxPoint x="-11" y="-99" as="offset" />
          </mxGeometry>
        </mxCell>
        <mxCell id="BJYVsuKNDV1E6xhOOfb5-72" value="" style="endArrow=none;html=1;rounded=0;exitX=1;exitY=0;exitDx=0;exitDy=0;entryX=0;entryY=0.75;entryDx=0;entryDy=0;" parent="1" source="BJYVsuKNDV1E6xhOOfb5-2" target="BJYVsuKNDV1E6xhOOfb5-1" edge="1">
          <mxGeometry width="50" height="50" relative="1" as="geometry">
            <mxPoint x="210" y="95" as="sourcePoint" />
            <mxPoint x="260" y="160" as="targetPoint" />
          </mxGeometry>
        </mxCell>
        <mxCell id="BJYVsuKNDV1E6xhOOfb5-78" value="" style="endArrow=none;html=1;rounded=0;exitX=0;exitY=0;exitDx=0;exitDy=0;entryX=1;entryY=0.5;entryDx=0;entryDy=0;" parent="1" source="BJYVsuKNDV1E6xhOOfb5-4" target="BJYVsuKNDV1E6xhOOfb5-1" edge="1">
          <mxGeometry width="50" height="50" relative="1" as="geometry">
            <mxPoint x="690" y="120" as="sourcePoint" />
            <mxPoint x="400" y="180" as="targetPoint" />
          </mxGeometry>
        </mxCell>
        <mxCell id="BJYVsuKNDV1E6xhOOfb5-79" value="" style="endArrow=none;html=1;rounded=0;entryX=1;entryY=0.5;entryDx=0;entryDy=0;" parent="1" source="BJYVsuKNDV1E6xhOOfb5-5" target="BJYVsuKNDV1E6xhOOfb5-1" edge="1">
          <mxGeometry width="50" height="50" relative="1" as="geometry">
            <mxPoint x="690" y="120" as="sourcePoint" />
            <mxPoint x="740" y="70" as="targetPoint" />
          </mxGeometry>
        </mxCell>
        <mxCell id="BJYVsuKNDV1E6xhOOfb5-80" value="" style="endArrow=none;html=1;rounded=0;entryX=1;entryY=0.5;entryDx=0;entryDy=0;" parent="1" source="BJYVsuKNDV1E6xhOOfb5-9" target="BJYVsuKNDV1E6xhOOfb5-1" edge="1">
          <mxGeometry width="50" height="50" relative="1" as="geometry">
            <mxPoint x="690" y="120" as="sourcePoint" />
            <mxPoint x="310" y="170" as="targetPoint" />
          </mxGeometry>
        </mxCell>
        <mxCell id="BJYVsuKNDV1E6xhOOfb5-81" value="" style="endArrow=none;html=1;rounded=0;exitX=0;exitY=1;exitDx=0;exitDy=0;entryX=1;entryY=0.5;entryDx=0;entryDy=0;" parent="1" source="BJYVsuKNDV1E6xhOOfb5-12" target="BJYVsuKNDV1E6xhOOfb5-1" edge="1">
          <mxGeometry width="50" height="50" relative="1" as="geometry">
            <mxPoint x="690" y="120" as="sourcePoint" />
            <mxPoint x="740" y="70" as="targetPoint" />
          </mxGeometry>
        </mxCell>
        <mxCell id="BJYVsuKNDV1E6xhOOfb5-82" value="" style="endArrow=none;html=1;rounded=0;exitX=0;exitY=0.75;exitDx=0;exitDy=0;entryX=1;entryY=0.5;entryDx=0;entryDy=0;" parent="1" source="BJYVsuKNDV1E6xhOOfb5-1" target="BJYVsuKNDV1E6xhOOfb5-10" edge="1">
          <mxGeometry width="50" height="50" relative="1" as="geometry">
            <mxPoint x="690" y="120" as="sourcePoint" />
            <mxPoint x="740" y="70" as="targetPoint" />
          </mxGeometry>
        </mxCell>
        <mxCell id="BJYVsuKNDV1E6xhOOfb5-83" value="" style="endArrow=none;html=1;rounded=0;exitX=1;exitY=0;exitDx=0;exitDy=0;entryX=0;entryY=0.5;entryDx=0;entryDy=0;" parent="1" source="BJYVsuKNDV1E6xhOOfb5-1" target="BJYVsuKNDV1E6xhOOfb5-7" edge="1">
          <mxGeometry width="50" height="50" relative="1" as="geometry">
            <mxPoint x="690" y="120" as="sourcePoint" />
            <mxPoint x="740" y="70" as="targetPoint" />
          </mxGeometry>
        </mxCell>
        <mxCell id="BJYVsuKNDV1E6xhOOfb5-84" value="" style="endArrow=none;html=1;rounded=0;exitX=0.75;exitY=0;exitDx=0;exitDy=0;entryX=0.5;entryY=1;entryDx=0;entryDy=0;" parent="1" source="BJYVsuKNDV1E6xhOOfb5-1" target="BJYVsuKNDV1E6xhOOfb5-6" edge="1">
          <mxGeometry width="50" height="50" relative="1" as="geometry">
            <mxPoint x="690" y="120" as="sourcePoint" />
            <mxPoint x="740" y="70" as="targetPoint" />
          </mxGeometry>
        </mxCell>
        <mxCell id="BJYVsuKNDV1E6xhOOfb5-85" value="" style="endArrow=none;html=1;rounded=0;exitX=0.75;exitY=0;exitDx=0;exitDy=0;" parent="1" source="BJYVsuKNDV1E6xhOOfb5-1" target="BJYVsuKNDV1E6xhOOfb5-8" edge="1">
          <mxGeometry width="50" height="50" relative="1" as="geometry">
            <mxPoint x="690" y="120" as="sourcePoint" />
            <mxPoint x="360" y="70" as="targetPoint" />
          </mxGeometry>
        </mxCell>
        <mxCell id="BJYVsuKNDV1E6xhOOfb5-95" value="" style="endArrow=none;html=1;rounded=0;exitX=0;exitY=0.5;exitDx=0;exitDy=0;entryX=1;entryY=0.5;entryDx=0;entryDy=0;" parent="1" source="BJYVsuKNDV1E6xhOOfb5-42" target="BJYVsuKNDV1E6xhOOfb5-41" edge="1">
          <mxGeometry width="50" height="50" relative="1" as="geometry">
            <mxPoint x="810" y="480" as="sourcePoint" />
            <mxPoint x="860" y="430" as="targetPoint" />
          </mxGeometry>
        </mxCell>
        <mxCell id="BJYVsuKNDV1E6xhOOfb5-96" value="" style="endArrow=none;html=1;rounded=0;exitX=1;exitY=0;exitDx=0;exitDy=0;entryX=0.25;entryY=1;entryDx=0;entryDy=0;" parent="1" source="BJYVsuKNDV1E6xhOOfb5-46" target="BJYVsuKNDV1E6xhOOfb5-41" edge="1">
          <mxGeometry width="50" height="50" relative="1" as="geometry">
            <mxPoint x="810" y="480" as="sourcePoint" />
            <mxPoint x="860" y="430" as="targetPoint" />
          </mxGeometry>
        </mxCell>
        <mxCell id="BJYVsuKNDV1E6xhOOfb5-97" value="" style="endArrow=none;html=1;rounded=0;exitX=0;exitY=0.5;exitDx=0;exitDy=0;entryX=1;entryY=0.5;entryDx=0;entryDy=0;" parent="1" source="BJYVsuKNDV1E6xhOOfb5-54" target="BJYVsuKNDV1E6xhOOfb5-41" edge="1">
          <mxGeometry width="50" height="50" relative="1" as="geometry">
            <mxPoint x="810" y="480" as="sourcePoint" />
            <mxPoint x="860" y="430" as="targetPoint" />
          </mxGeometry>
        </mxCell>
        <mxCell id="BJYVsuKNDV1E6xhOOfb5-98" value="" style="endArrow=none;html=1;rounded=0;entryX=0;entryY=1;entryDx=0;entryDy=0;exitX=1;exitY=0.5;exitDx=0;exitDy=0;" parent="1" source="BJYVsuKNDV1E6xhOOfb5-41" target="BJYVsuKNDV1E6xhOOfb5-43" edge="1">
          <mxGeometry width="50" height="50" relative="1" as="geometry">
            <mxPoint x="920" y="680" as="sourcePoint" />
            <mxPoint x="860" y="430" as="targetPoint" />
          </mxGeometry>
        </mxCell>
        <mxCell id="BJYVsuKNDV1E6xhOOfb5-100" value="" style="endArrow=none;html=1;rounded=0;entryX=0;entryY=0;entryDx=0;entryDy=0;exitX=0.75;exitY=1;exitDx=0;exitDy=0;" parent="1" source="BJYVsuKNDV1E6xhOOfb5-41" target="BJYVsuKNDV1E6xhOOfb5-50" edge="1">
          <mxGeometry width="50" height="50" relative="1" as="geometry">
            <mxPoint x="810" y="480" as="sourcePoint" />
            <mxPoint x="860" y="430" as="targetPoint" />
          </mxGeometry>
        </mxCell>
        <mxCell id="BJYVsuKNDV1E6xhOOfb5-101" value="" style="endArrow=none;html=1;rounded=0;entryX=0.5;entryY=0;entryDx=0;entryDy=0;exitX=0.5;exitY=1;exitDx=0;exitDy=0;" parent="1" source="BJYVsuKNDV1E6xhOOfb5-41" target="BJYVsuKNDV1E6xhOOfb5-44" edge="1">
          <mxGeometry width="50" height="50" relative="1" as="geometry">
            <mxPoint x="810" y="480" as="sourcePoint" />
            <mxPoint x="860" y="430" as="targetPoint" />
          </mxGeometry>
        </mxCell>
        <mxCell id="BJYVsuKNDV1E6xhOOfb5-102" value="" style="endArrow=none;html=1;rounded=0;entryX=0.5;entryY=1;entryDx=0;entryDy=0;exitX=0.5;exitY=0;exitDx=0;exitDy=0;" parent="1" source="BJYVsuKNDV1E6xhOOfb5-45" target="BJYVsuKNDV1E6xhOOfb5-41" edge="1">
          <mxGeometry width="50" height="50" relative="1" as="geometry">
            <mxPoint x="810" y="480" as="sourcePoint" />
            <mxPoint x="860" y="430" as="targetPoint" />
          </mxGeometry>
        </mxCell>
        <mxCell id="BJYVsuKNDV1E6xhOOfb5-104" value="&lt;font style=&quot;font-size: 14px;&quot;&gt;回复&lt;/font&gt;" style="rhombus;whiteSpace=wrap;html=1;fillColor=#FFB366;fontColor=#333333;strokeColor=#666666;fillStyle=hatch;" parent="1" vertex="1">
          <mxGeometry x="505.62" y="660" width="120" height="50" as="geometry" />
        </mxCell>
        <mxCell id="BJYVsuKNDV1E6xhOOfb5-105" value="" style="endArrow=none;html=1;rounded=0;entryX=0.5;entryY=0;entryDx=0;entryDy=0;exitX=0.5;exitY=1;exitDx=0;exitDy=0;" parent="1" source="BJYVsuKNDV1E6xhOOfb5-22" target="BJYVsuKNDV1E6xhOOfb5-21" edge="1">
          <mxGeometry width="50" height="50" relative="1" as="geometry">
            <mxPoint x="-460" y="1535" as="sourcePoint" />
            <mxPoint x="-410" y="1485" as="targetPoint" />
          </mxGeometry>
        </mxCell>
        <mxCell id="BJYVsuKNDV1E6xhOOfb5-106" value="" style="endArrow=none;html=1;rounded=0;entryX=0.5;entryY=0;entryDx=0;entryDy=0;exitX=0.5;exitY=1;exitDx=0;exitDy=0;" parent="1" source="BJYVsuKNDV1E6xhOOfb5-21" target="BJYVsuKNDV1E6xhOOfb5-23" edge="1">
          <mxGeometry width="50" height="50" relative="1" as="geometry">
            <mxPoint x="-460" y="1535" as="sourcePoint" />
            <mxPoint x="-410" y="1485" as="targetPoint" />
          </mxGeometry>
        </mxCell>
        <mxCell id="BJYVsuKNDV1E6xhOOfb5-109" value="" style="endArrow=none;html=1;rounded=0;exitX=1;exitY=0;exitDx=0;exitDy=0;entryX=0;entryY=1;entryDx=0;entryDy=0;" parent="1" source="BJYVsuKNDV1E6xhOOfb5-40" target="BJYVsuKNDV1E6xhOOfb5-129" edge="1">
          <mxGeometry width="50" height="50" relative="1" as="geometry">
            <mxPoint x="350" y="425" as="sourcePoint" />
            <mxPoint x="75" y="465" as="targetPoint" />
          </mxGeometry>
        </mxCell>
        <mxCell id="BJYVsuKNDV1E6xhOOfb5-110" value="" style="endArrow=none;html=1;rounded=0;exitX=0;exitY=1;exitDx=0;exitDy=0;entryX=1;entryY=0.5;entryDx=0;entryDy=0;" parent="1" source="BJYVsuKNDV1E6xhOOfb5-129" target="BJYVsuKNDV1E6xhOOfb5-39" edge="1">
          <mxGeometry width="50" height="50" relative="1" as="geometry">
            <mxPoint x="75" y="465" as="sourcePoint" />
            <mxPoint x="400" y="375" as="targetPoint" />
          </mxGeometry>
        </mxCell>
        <mxCell id="BJYVsuKNDV1E6xhOOfb5-111" value="" style="endArrow=none;html=1;rounded=0;exitX=1;exitY=0.5;exitDx=0;exitDy=0;entryX=0;entryY=0;entryDx=0;entryDy=0;" parent="1" source="BJYVsuKNDV1E6xhOOfb5-37" target="BJYVsuKNDV1E6xhOOfb5-129" edge="1">
          <mxGeometry width="50" height="50" relative="1" as="geometry">
            <mxPoint x="350" y="425" as="sourcePoint" />
            <mxPoint x="75" y="415" as="targetPoint" />
          </mxGeometry>
        </mxCell>
        <mxCell id="BJYVsuKNDV1E6xhOOfb5-112" value="" style="endArrow=none;html=1;rounded=0;exitX=0;exitY=0;exitDx=0;exitDy=0;entryX=1;entryY=0.5;entryDx=0;entryDy=0;" parent="1" source="BJYVsuKNDV1E6xhOOfb5-129" target="BJYVsuKNDV1E6xhOOfb5-38" edge="1">
          <mxGeometry width="50" height="50" relative="1" as="geometry">
            <mxPoint x="75" y="415" as="sourcePoint" />
            <mxPoint x="400" y="375" as="targetPoint" />
          </mxGeometry>
        </mxCell>
        <mxCell id="BJYVsuKNDV1E6xhOOfb5-113" value="&lt;font style=&quot;font-size: 14px;&quot;&gt;关注&lt;/font&gt;" style="rhombus;whiteSpace=wrap;html=1;fillColor=#FFB366;fillStyle=hatch;" parent="1" vertex="1">
          <mxGeometry x="70" y="35" width="120" height="50" as="geometry" />
        </mxCell>
        <mxCell id="BJYVsuKNDV1E6xhOOfb5-121" value="" style="endArrow=none;html=1;rounded=0;entryX=0.25;entryY=0;entryDx=0;entryDy=0;exitX=1;exitY=0.5;exitDx=0;exitDy=0;" parent="1" source="BJYVsuKNDV1E6xhOOfb5-113" target="BJYVsuKNDV1E6xhOOfb5-1" edge="1">
          <mxGeometry width="50" height="50" relative="1" as="geometry">
            <mxPoint x="180" y="65" as="sourcePoint" />
            <mxPoint x="230" y="15" as="targetPoint" />
            <Array as="points">
              <mxPoint x="285" y="60" />
            </Array>
          </mxGeometry>
        </mxCell>
        <mxCell id="BJYVsuKNDV1E6xhOOfb5-122" value="&lt;font style=&quot;font-size: 14px;&quot;&gt;n&lt;/font&gt;" style="edgeLabel;html=1;align=center;verticalAlign=middle;resizable=0;points=[];" parent="BJYVsuKNDV1E6xhOOfb5-121" vertex="1" connectable="0">
          <mxGeometry x="-0.6453" y="-1" relative="1" as="geometry">
            <mxPoint x="-17" y="-11" as="offset" />
          </mxGeometry>
        </mxCell>
        <mxCell id="BJYVsuKNDV1E6xhOOfb5-123" value="" style="endArrow=none;html=1;rounded=0;entryX=0;entryY=0.5;entryDx=0;entryDy=0;exitX=0.5;exitY=1;exitDx=0;exitDy=0;" parent="1" source="BJYVsuKNDV1E6xhOOfb5-113" target="BJYVsuKNDV1E6xhOOfb5-1" edge="1">
          <mxGeometry width="50" height="50" relative="1" as="geometry">
            <mxPoint x="117" y="125" as="sourcePoint" />
            <mxPoint x="167" y="75" as="targetPoint" />
            <Array as="points">
              <mxPoint x="130" y="145" />
            </Array>
          </mxGeometry>
        </mxCell>
        <mxCell id="BJYVsuKNDV1E6xhOOfb5-124" value="&lt;font style=&quot;font-size: 14px;&quot;&gt;1&lt;/font&gt;" style="edgeLabel;html=1;align=center;verticalAlign=middle;resizable=0;points=[];" parent="BJYVsuKNDV1E6xhOOfb5-123" vertex="1" connectable="0">
          <mxGeometry x="-0.7468" y="-3" relative="1" as="geometry">
            <mxPoint x="13" y="-14" as="offset" />
          </mxGeometry>
        </mxCell>
        <mxCell id="BJYVsuKNDV1E6xhOOfb5-125" value="&lt;span style=&quot;font-size: 14px;&quot;&gt;关注时间&lt;/span&gt;" style="ellipse;whiteSpace=wrap;html=1;fillColor=#d5e8d4;strokeColor=#82b366;fillStyle=hatch;" parent="1" vertex="1">
          <mxGeometry x="-60" y="30" width="100" height="60" as="geometry" />
        </mxCell>
        <mxCell id="BJYVsuKNDV1E6xhOOfb5-127" value="" style="endArrow=none;html=1;rounded=0;exitX=1;exitY=0.5;exitDx=0;exitDy=0;entryX=0;entryY=0.5;entryDx=0;entryDy=0;" parent="1" source="BJYVsuKNDV1E6xhOOfb5-125" target="BJYVsuKNDV1E6xhOOfb5-113" edge="1">
          <mxGeometry width="50" height="50" relative="1" as="geometry">
            <mxPoint x="470" y="130" as="sourcePoint" />
            <mxPoint x="520" y="80" as="targetPoint" />
          </mxGeometry>
        </mxCell>
        <mxCell id="BJYVsuKNDV1E6xhOOfb5-129" value="&lt;font style=&quot;font-size: 14px;&quot;&gt;评论&lt;/font&gt;" style="rounded=0;whiteSpace=wrap;html=1;fillColor=#0066CC;strokeColor=#6c8ebf;fillStyle=hatch;" parent="1" vertex="1">
          <mxGeometry x="30" y="450" width="100" height="50" as="geometry" />
        </mxCell>
        <mxCell id="BJYVsuKNDV1E6xhOOfb5-130" value="&lt;font style=&quot;font-size: 14px;&quot;&gt;创建评论&lt;/font&gt;" style="rhombus;whiteSpace=wrap;html=1;fillColor=#FFB366;fontColor=#333333;strokeColor=#666666;fillStyle=hatch;" parent="1" vertex="1">
          <mxGeometry x="20" y="320" width="120" height="50" as="geometry" />
        </mxCell>
        <mxCell id="BJYVsuKNDV1E6xhOOfb5-131" value="" style="endArrow=none;html=1;rounded=0;exitX=0.5;exitY=1;exitDx=0;exitDy=0;entryX=0.5;entryY=0;entryDx=0;entryDy=0;" parent="1" source="BJYVsuKNDV1E6xhOOfb5-130" target="BJYVsuKNDV1E6xhOOfb5-129" edge="1">
          <mxGeometry width="50" height="50" relative="1" as="geometry">
            <mxPoint x="10" y="385" as="sourcePoint" />
            <mxPoint x="60" y="335" as="targetPoint" />
          </mxGeometry>
        </mxCell>
        <mxCell id="BJYVsuKNDV1E6xhOOfb5-134" value="&lt;font style=&quot;font-size: 14px;&quot;&gt;n&lt;/font&gt;" style="edgeLabel;html=1;align=center;verticalAlign=middle;resizable=0;points=[];" parent="BJYVsuKNDV1E6xhOOfb5-131" vertex="1" connectable="0">
          <mxGeometry x="-0.7333" y="1" relative="1" as="geometry">
            <mxPoint x="9" y="11" as="offset" />
          </mxGeometry>
        </mxCell>
        <mxCell id="BJYVsuKNDV1E6xhOOfb5-136" value="&lt;font style=&quot;font-size: 14px;&quot;&gt;管理共享&amp;nbsp;&lt;/font&gt;" style="rhombus;whiteSpace=wrap;html=1;fillColor=#FFB366;fontColor=#333333;strokeColor=#666666;fillStyle=hatch;" parent="1" vertex="1">
          <mxGeometry x="-260" y="270" width="120" height="50" as="geometry" />
        </mxCell>
        <mxCell id="BJYVsuKNDV1E6xhOOfb5-144" value="" style="endArrow=none;html=1;rounded=0;entryX=0.5;entryY=0;entryDx=0;entryDy=0;exitX=0.5;exitY=1;exitDx=0;exitDy=0;" parent="1" source="BJYVsuKNDV1E6xhOOfb5-202" target="BJYVsuKNDV1E6xhOOfb5-104" edge="1">
          <mxGeometry width="50" height="50" relative="1" as="geometry">
            <mxPoint x="350.62" y="980" as="sourcePoint" />
            <mxPoint x="670.62" y="1425.75" as="targetPoint" />
          </mxGeometry>
        </mxCell>
        <mxCell id="BJYVsuKNDV1E6xhOOfb5-146" value="&lt;font style=&quot;font-size: 14px;&quot;&gt;n&lt;/font&gt;" style="edgeLabel;html=1;align=center;verticalAlign=middle;resizable=0;points=[];" parent="BJYVsuKNDV1E6xhOOfb5-144" vertex="1" connectable="0">
          <mxGeometry x="0.8287" relative="1" as="geometry">
            <mxPoint x="-15" y="-5" as="offset" />
          </mxGeometry>
        </mxCell>
        <mxCell id="BJYVsuKNDV1E6xhOOfb5-145" value="" style="endArrow=none;html=1;rounded=0;exitX=1;exitY=0.5;exitDx=0;exitDy=0;entryX=0;entryY=0.25;entryDx=0;entryDy=0;" parent="1" source="BJYVsuKNDV1E6xhOOfb5-104" target="BJYVsuKNDV1E6xhOOfb5-41" edge="1">
          <mxGeometry width="50" height="50" relative="1" as="geometry">
            <mxPoint x="580" y="1475.75" as="sourcePoint" />
            <mxPoint x="630" y="1425.75" as="targetPoint" />
            <Array as="points" />
          </mxGeometry>
        </mxCell>
        <mxCell id="BJYVsuKNDV1E6xhOOfb5-147" value="&lt;font style=&quot;font-size: 14px;&quot;&gt;1&lt;/font&gt;" style="edgeLabel;html=1;align=center;verticalAlign=middle;resizable=0;points=[];" parent="BJYVsuKNDV1E6xhOOfb5-145" vertex="1" connectable="0">
          <mxGeometry x="-0.8956" y="1" relative="1" as="geometry">
            <mxPoint x="-5" y="-14" as="offset" />
          </mxGeometry>
        </mxCell>
        <mxCell id="BJYVsuKNDV1E6xhOOfb5-150" value="&lt;font style=&quot;font-size: 14px;&quot;&gt;评论&lt;/font&gt;" style="rhombus;whiteSpace=wrap;html=1;fillColor=#FFB366;fontColor=#333333;strokeColor=#666666;fillStyle=hatch;" parent="1" vertex="1">
          <mxGeometry x="20" y="655" width="120" height="50" as="geometry" />
        </mxCell>
        <mxCell id="BJYVsuKNDV1E6xhOOfb5-156" value="" style="endArrow=none;html=1;rounded=0;exitX=0.946;exitY=0.267;exitDx=0;exitDy=0;exitPerimeter=0;" parent="1" source="BJYVsuKNDV1E6xhOOfb5-35" edge="1">
          <mxGeometry width="50" height="50" relative="1" as="geometry">
            <mxPoint x="-170" y="736.25" as="sourcePoint" />
            <mxPoint x="-310" y="701" as="targetPoint" />
          </mxGeometry>
        </mxCell>
        <mxCell id="BJYVsuKNDV1E6xhOOfb5-157" value="" style="endArrow=none;html=1;rounded=0;exitX=0;exitY=0;exitDx=0;exitDy=0;entryX=0.5;entryY=1;entryDx=0;entryDy=0;" parent="1" source="BJYVsuKNDV1E6xhOOfb5-55" target="BJYVsuKNDV1E6xhOOfb5-24" edge="1">
          <mxGeometry width="50" height="50" relative="1" as="geometry">
            <mxPoint x="-170" y="736.25" as="sourcePoint" />
            <mxPoint x="-120" y="686.25" as="targetPoint" />
          </mxGeometry>
        </mxCell>
        <mxCell id="BJYVsuKNDV1E6xhOOfb5-158" value="" style="endArrow=none;html=1;rounded=0;exitX=1;exitY=0;exitDx=0;exitDy=0;entryX=0;entryY=0.5;entryDx=0;entryDy=0;" parent="1" source="BJYVsuKNDV1E6xhOOfb5-30" target="BJYVsuKNDV1E6xhOOfb5-24" edge="1">
          <mxGeometry width="50" height="50" relative="1" as="geometry">
            <mxPoint x="-170" y="736.25" as="sourcePoint" />
            <mxPoint x="-300" y="700" as="targetPoint" />
          </mxGeometry>
        </mxCell>
        <mxCell id="BJYVsuKNDV1E6xhOOfb5-159" value="" style="endArrow=none;html=1;rounded=0;exitX=0;exitY=0.5;exitDx=0;exitDy=0;entryX=1;entryY=0.5;entryDx=0;entryDy=0;" parent="1" source="BJYVsuKNDV1E6xhOOfb5-24" target="BJYVsuKNDV1E6xhOOfb5-53" edge="1">
          <mxGeometry width="50" height="50" relative="1" as="geometry">
            <mxPoint x="-170" y="736.25" as="sourcePoint" />
            <mxPoint x="-120" y="686.25" as="targetPoint" />
          </mxGeometry>
        </mxCell>
        <mxCell id="BJYVsuKNDV1E6xhOOfb5-160" value="" style="endArrow=none;html=1;rounded=0;exitX=0;exitY=0.5;exitDx=0;exitDy=0;entryX=1;entryY=0.5;entryDx=0;entryDy=0;" parent="1" source="BJYVsuKNDV1E6xhOOfb5-24" target="BJYVsuKNDV1E6xhOOfb5-33" edge="1">
          <mxGeometry width="50" height="50" relative="1" as="geometry">
            <mxPoint x="-170" y="736.25" as="sourcePoint" />
            <mxPoint x="-120" y="686.25" as="targetPoint" />
          </mxGeometry>
        </mxCell>
        <mxCell id="BJYVsuKNDV1E6xhOOfb5-161" value="" style="endArrow=none;html=1;rounded=0;exitX=0;exitY=0.5;exitDx=0;exitDy=0;entryX=1;entryY=1;entryDx=0;entryDy=0;" parent="1" source="BJYVsuKNDV1E6xhOOfb5-24" target="BJYVsuKNDV1E6xhOOfb5-27" edge="1">
          <mxGeometry width="50" height="50" relative="1" as="geometry">
            <mxPoint x="-170" y="736.25" as="sourcePoint" />
            <mxPoint x="-120" y="686.25" as="targetPoint" />
          </mxGeometry>
        </mxCell>
        <mxCell id="BJYVsuKNDV1E6xhOOfb5-162" value="" style="endArrow=none;html=1;rounded=0;exitX=0;exitY=0.5;exitDx=0;exitDy=0;entryX=1;entryY=1;entryDx=0;entryDy=0;" parent="1" source="BJYVsuKNDV1E6xhOOfb5-24" target="BJYVsuKNDV1E6xhOOfb5-25" edge="1">
          <mxGeometry width="50" height="50" relative="1" as="geometry">
            <mxPoint x="-170" y="736.25" as="sourcePoint" />
            <mxPoint x="-120" y="686.25" as="targetPoint" />
          </mxGeometry>
        </mxCell>
        <mxCell id="BJYVsuKNDV1E6xhOOfb5-163" value="" style="endArrow=none;html=1;rounded=0;exitX=0;exitY=0.5;exitDx=0;exitDy=0;entryX=0.5;entryY=0;entryDx=0;entryDy=0;" parent="1" source="BJYVsuKNDV1E6xhOOfb5-24" target="BJYVsuKNDV1E6xhOOfb5-26" edge="1">
          <mxGeometry width="50" height="50" relative="1" as="geometry">
            <mxPoint x="-170" y="736.25" as="sourcePoint" />
            <mxPoint x="-120" y="686.25" as="targetPoint" />
          </mxGeometry>
        </mxCell>
        <mxCell id="BJYVsuKNDV1E6xhOOfb5-164" value="" style="endArrow=none;html=1;rounded=0;exitX=0.5;exitY=1;exitDx=0;exitDy=0;entryX=1;entryY=0;entryDx=0;entryDy=0;" parent="1" source="BJYVsuKNDV1E6xhOOfb5-24" target="BJYVsuKNDV1E6xhOOfb5-34" edge="1">
          <mxGeometry width="50" height="50" relative="1" as="geometry">
            <mxPoint x="-170" y="736.25" as="sourcePoint" />
            <mxPoint x="-120" y="686.25" as="targetPoint" />
          </mxGeometry>
        </mxCell>
        <mxCell id="BJYVsuKNDV1E6xhOOfb5-165" value="" style="endArrow=none;html=1;rounded=0;exitX=0.5;exitY=1;exitDx=0;exitDy=0;entryX=0.5;entryY=0;entryDx=0;entryDy=0;" parent="1" source="BJYVsuKNDV1E6xhOOfb5-24" target="BJYVsuKNDV1E6xhOOfb5-32" edge="1">
          <mxGeometry width="50" height="50" relative="1" as="geometry">
            <mxPoint x="-170" y="736.25" as="sourcePoint" />
            <mxPoint x="-120" y="686.25" as="targetPoint" />
          </mxGeometry>
        </mxCell>
        <mxCell id="BJYVsuKNDV1E6xhOOfb5-166" value="" style="endArrow=none;html=1;rounded=0;exitX=1;exitY=0.5;exitDx=0;exitDy=0;entryX=0;entryY=0.5;entryDx=0;entryDy=0;" parent="1" source="BJYVsuKNDV1E6xhOOfb5-29" target="BJYVsuKNDV1E6xhOOfb5-24" edge="1">
          <mxGeometry width="50" height="50" relative="1" as="geometry">
            <mxPoint x="-170" y="736.25" as="sourcePoint" />
            <mxPoint x="-120" y="686.25" as="targetPoint" />
          </mxGeometry>
        </mxCell>
        <mxCell id="BJYVsuKNDV1E6xhOOfb5-167" value="" style="endArrow=none;html=1;rounded=0;exitX=0.5;exitY=0;exitDx=0;exitDy=0;entryX=0.5;entryY=1;entryDx=0;entryDy=0;" parent="1" source="BJYVsuKNDV1E6xhOOfb5-28" target="BJYVsuKNDV1E6xhOOfb5-24" edge="1">
          <mxGeometry width="50" height="50" relative="1" as="geometry">
            <mxPoint x="-170" y="736.25" as="sourcePoint" />
            <mxPoint x="-120" y="686.25" as="targetPoint" />
          </mxGeometry>
        </mxCell>
        <mxCell id="BJYVsuKNDV1E6xhOOfb5-168" value="" style="endArrow=none;html=1;rounded=0;exitX=0.5;exitY=1;exitDx=0;exitDy=0;entryX=0.5;entryY=0;entryDx=0;entryDy=0;" parent="1" source="BJYVsuKNDV1E6xhOOfb5-24" target="BJYVsuKNDV1E6xhOOfb5-31" edge="1">
          <mxGeometry width="50" height="50" relative="1" as="geometry">
            <mxPoint x="-170" y="736.25" as="sourcePoint" />
            <mxPoint x="-120" y="686.25" as="targetPoint" />
          </mxGeometry>
        </mxCell>
        <mxCell id="BJYVsuKNDV1E6xhOOfb5-169" value="&lt;font style=&quot;font-size: 14px;&quot;&gt;关联共享&lt;/font&gt;" style="rhombus;whiteSpace=wrap;html=1;fillColor=#FFB366;fontColor=#333333;strokeColor=#666666;fillStyle=hatch;" parent="1" vertex="1">
          <mxGeometry x="20" y="1100" width="120" height="50" as="geometry" />
        </mxCell>
        <mxCell id="BJYVsuKNDV1E6xhOOfb5-171" value="" style="endArrow=none;html=1;rounded=0;entryX=1;entryY=0.5;entryDx=0;entryDy=0;" parent="1" source="BJYVsuKNDV1E6xhOOfb5-21" target="BJYVsuKNDV1E6xhOOfb5-169" edge="1">
          <mxGeometry width="50" height="50" relative="1" as="geometry">
            <mxPoint x="820" y="1685.75" as="sourcePoint" />
            <mxPoint x="870" y="1635.75" as="targetPoint" />
          </mxGeometry>
        </mxCell>
        <mxCell id="BJYVsuKNDV1E6xhOOfb5-173" value="&lt;font style=&quot;font-size: 14px;&quot;&gt;n&lt;/font&gt;" style="edgeLabel;html=1;align=center;verticalAlign=middle;resizable=0;points=[];" parent="BJYVsuKNDV1E6xhOOfb5-171" vertex="1" connectable="0">
          <mxGeometry x="0.8311" y="-2" relative="1" as="geometry">
            <mxPoint x="1" y="-13" as="offset" />
          </mxGeometry>
        </mxCell>
        <mxCell id="BJYVsuKNDV1E6xhOOfb5-174" value="&lt;font style=&quot;font-size: 14px;&quot;&gt;关联任务&lt;/font&gt;" style="rhombus;whiteSpace=wrap;html=1;fillColor=#FFB366;fontColor=#333333;strokeColor=#666666;fillStyle=hatch;" parent="1" vertex="1">
          <mxGeometry x="465" y="1100" width="120" height="50" as="geometry" />
        </mxCell>
        <mxCell id="BJYVsuKNDV1E6xhOOfb5-175" value="" style="endArrow=none;html=1;rounded=0;entryX=1;entryY=0.5;entryDx=0;entryDy=0;exitX=0;exitY=0.8;exitDx=0;exitDy=0;exitPerimeter=0;" parent="1" source="BJYVsuKNDV1E6xhOOfb5-41" target="BJYVsuKNDV1E6xhOOfb5-174" edge="1">
          <mxGeometry width="50" height="50" relative="1" as="geometry">
            <mxPoint x="680" y="1525.75" as="sourcePoint" />
            <mxPoint x="730" y="1475.75" as="targetPoint" />
            <Array as="points">
              <mxPoint x="720" y="710" />
              <mxPoint x="720" y="1125" />
            </Array>
          </mxGeometry>
        </mxCell>
        <mxCell id="BJYVsuKNDV1E6xhOOfb5-178" value="&lt;font style=&quot;font-size: 14px;&quot;&gt;1&lt;/font&gt;" style="edgeLabel;html=1;align=center;verticalAlign=middle;resizable=0;points=[];" parent="BJYVsuKNDV1E6xhOOfb5-175" vertex="1" connectable="0">
          <mxGeometry x="0.793" y="1" relative="1" as="geometry">
            <mxPoint x="-55" y="-16" as="offset" />
          </mxGeometry>
        </mxCell>
        <mxCell id="BJYVsuKNDV1E6xhOOfb5-176" value="" style="endArrow=none;html=1;rounded=0;entryX=1;entryY=0.5;entryDx=0;entryDy=0;exitX=0;exitY=0.5;exitDx=0;exitDy=0;" parent="1" source="BJYVsuKNDV1E6xhOOfb5-174" target="BJYVsuKNDV1E6xhOOfb5-21" edge="1">
          <mxGeometry width="50" height="50" relative="1" as="geometry">
            <mxPoint x="570" y="1520" as="sourcePoint" />
            <mxPoint x="730" y="1805.75" as="targetPoint" />
          </mxGeometry>
        </mxCell>
        <mxCell id="BJYVsuKNDV1E6xhOOfb5-177" value="&lt;font style=&quot;font-size: 14px;&quot;&gt;n&lt;/font&gt;" style="edgeLabel;html=1;align=center;verticalAlign=middle;resizable=0;points=[];" parent="BJYVsuKNDV1E6xhOOfb5-176" vertex="1" connectable="0">
          <mxGeometry x="-0.8966" y="-1" relative="1" as="geometry">
            <mxPoint x="-1" y="-14" as="offset" />
          </mxGeometry>
        </mxCell>
        <mxCell id="BJYVsuKNDV1E6xhOOfb5-179" value="&lt;font style=&quot;font-size: 14px;&quot;&gt;关联公告&lt;/font&gt;" style="rhombus;whiteSpace=wrap;html=1;fillColor=#FFB366;fontColor=#333333;strokeColor=#666666;fillStyle=hatch;" parent="1" vertex="1">
          <mxGeometry x="250" y="-300" width="120" height="50" as="geometry" />
        </mxCell>
        <mxCell id="BJYVsuKNDV1E6xhOOfb5-180" value="" style="endArrow=none;html=1;rounded=0;exitX=0.75;exitY=0;exitDx=0;exitDy=0;entryX=0;entryY=0.5;entryDx=0;entryDy=0;" parent="1" source="BJYVsuKNDV1E6xhOOfb5-11" target="BJYVsuKNDV1E6xhOOfb5-179" edge="1">
          <mxGeometry width="50" height="50" relative="1" as="geometry">
            <mxPoint x="200" y="-300" as="sourcePoint" />
            <mxPoint x="250" y="-350" as="targetPoint" />
            <Array as="points">
              <mxPoint x="155" y="-275" />
            </Array>
          </mxGeometry>
        </mxCell>
        <mxCell id="BJYVsuKNDV1E6xhOOfb5-182" value="&lt;font style=&quot;font-size: 14px;&quot;&gt;n&lt;/font&gt;" style="edgeLabel;html=1;align=center;verticalAlign=middle;resizable=0;points=[];" parent="BJYVsuKNDV1E6xhOOfb5-180" vertex="1" connectable="0">
          <mxGeometry x="0.7681" y="1" relative="1" as="geometry">
            <mxPoint x="-5" y="-14" as="offset" />
          </mxGeometry>
        </mxCell>
        <mxCell id="BJYVsuKNDV1E6xhOOfb5-181" value="" style="endArrow=none;html=1;rounded=0;entryX=0.5;entryY=1;entryDx=0;entryDy=0;" parent="1" source="BJYVsuKNDV1E6xhOOfb5-179" target="BJYVsuKNDV1E6xhOOfb5-17" edge="1">
          <mxGeometry width="50" height="50" relative="1" as="geometry">
            <mxPoint x="200" y="-300" as="sourcePoint" />
            <mxPoint x="250" y="-350" as="targetPoint" />
          </mxGeometry>
        </mxCell>
        <mxCell id="BJYVsuKNDV1E6xhOOfb5-183" value="&lt;font style=&quot;font-size: 14px;&quot;&gt;1&lt;/font&gt;" style="edgeLabel;html=1;align=center;verticalAlign=middle;resizable=0;points=[];" parent="BJYVsuKNDV1E6xhOOfb5-181" vertex="1" connectable="0">
          <mxGeometry x="-0.8493" y="-3" relative="1" as="geometry">
            <mxPoint x="-13" y="1" as="offset" />
          </mxGeometry>
        </mxCell>
        <mxCell id="BJYVsuKNDV1E6xhOOfb5-184" value="" style="endArrow=none;html=1;rounded=0;entryX=0;entryY=1;entryDx=0;entryDy=0;exitX=1;exitY=0.5;exitDx=0;exitDy=0;" parent="1" source="BJYVsuKNDV1E6xhOOfb5-136" target="BJYVsuKNDV1E6xhOOfb5-1" edge="1">
          <mxGeometry width="50" height="50" relative="1" as="geometry">
            <mxPoint x="-150" y="460" as="sourcePoint" />
            <mxPoint x="-100" y="410" as="targetPoint" />
            <Array as="points">
              <mxPoint x="260" y="300" />
            </Array>
          </mxGeometry>
        </mxCell>
        <mxCell id="BJYVsuKNDV1E6xhOOfb5-237" value="&lt;font style=&quot;font-size: 14px;&quot;&gt;n&lt;/font&gt;" style="edgeLabel;html=1;align=center;verticalAlign=middle;resizable=0;points=[];" parent="BJYVsuKNDV1E6xhOOfb5-184" vertex="1" connectable="0">
          <mxGeometry x="-0.8868" y="1" relative="1" as="geometry">
            <mxPoint x="-20" y="-14" as="offset" />
          </mxGeometry>
        </mxCell>
        <mxCell id="BJYVsuKNDV1E6xhOOfb5-185" value="" style="endArrow=none;html=1;rounded=0;entryX=0.5;entryY=1;entryDx=0;entryDy=0;exitX=1;exitY=0;exitDx=0;exitDy=0;" parent="1" source="BJYVsuKNDV1E6xhOOfb5-24" target="BJYVsuKNDV1E6xhOOfb5-136" edge="1">
          <mxGeometry width="50" height="50" relative="1" as="geometry">
            <mxPoint x="-210" y="670" as="sourcePoint" />
            <mxPoint x="-100" y="410" as="targetPoint" />
          </mxGeometry>
        </mxCell>
        <mxCell id="BJYVsuKNDV1E6xhOOfb5-238" value="&lt;font style=&quot;font-size: 14px;&quot;&gt;m&lt;/font&gt;" style="edgeLabel;html=1;align=center;verticalAlign=middle;resizable=0;points=[];" parent="BJYVsuKNDV1E6xhOOfb5-185" vertex="1" connectable="0">
          <mxGeometry x="0.8911" y="-2" relative="1" as="geometry">
            <mxPoint x="8" y="6" as="offset" />
          </mxGeometry>
        </mxCell>
        <mxCell id="BJYVsuKNDV1E6xhOOfb5-186" value="" style="endArrow=none;html=1;rounded=0;entryX=0.5;entryY=1;entryDx=0;entryDy=0;exitX=0.5;exitY=0;exitDx=0;exitDy=0;" parent="1" source="BJYVsuKNDV1E6xhOOfb5-150" target="BJYVsuKNDV1E6xhOOfb5-129" edge="1">
          <mxGeometry width="50" height="50" relative="1" as="geometry">
            <mxPoint x="-150" y="460" as="sourcePoint" />
            <mxPoint x="-100" y="410" as="targetPoint" />
          </mxGeometry>
        </mxCell>
        <mxCell id="BJYVsuKNDV1E6xhOOfb5-229" value="&lt;font style=&quot;font-size: 14px;&quot;&gt;n&lt;/font&gt;" style="edgeLabel;html=1;align=center;verticalAlign=middle;resizable=0;points=[];" parent="BJYVsuKNDV1E6xhOOfb5-186" vertex="1" connectable="0">
          <mxGeometry x="-0.7943" y="-2" relative="1" as="geometry">
            <mxPoint x="18" y="-4" as="offset" />
          </mxGeometry>
        </mxCell>
        <mxCell id="BJYVsuKNDV1E6xhOOfb5-187" value="" style="endArrow=none;html=1;rounded=0;entryX=0;entryY=0.5;entryDx=0;entryDy=0;exitX=0.996;exitY=0.203;exitDx=0;exitDy=0;exitPerimeter=0;" parent="1" source="BJYVsuKNDV1E6xhOOfb5-24" target="BJYVsuKNDV1E6xhOOfb5-150" edge="1">
          <mxGeometry width="50" height="50" relative="1" as="geometry">
            <mxPoint x="-200" y="680" as="sourcePoint" />
            <mxPoint x="-100" y="410" as="targetPoint" />
          </mxGeometry>
        </mxCell>
        <mxCell id="BJYVsuKNDV1E6xhOOfb5-230" value="&lt;font style=&quot;font-size: 14px;&quot;&gt;1&lt;/font&gt;" style="edgeLabel;html=1;align=center;verticalAlign=middle;resizable=0;points=[];" parent="BJYVsuKNDV1E6xhOOfb5-187" vertex="1" connectable="0">
          <mxGeometry x="0.9017" relative="1" as="geometry">
            <mxPoint y="-15" as="offset" />
          </mxGeometry>
        </mxCell>
        <mxCell id="BJYVsuKNDV1E6xhOOfb5-188" value="&lt;font style=&quot;font-size: 14px;&quot;&gt;关联共享&lt;/font&gt;" style="rhombus;whiteSpace=wrap;html=1;fillColor=#FFB366;fontColor=#333333;strokeColor=#666666;fillStyle=hatch;" parent="1" vertex="1">
          <mxGeometry x="-340" y="-240" width="120" height="50" as="geometry" />
        </mxCell>
        <mxCell id="BJYVsuKNDV1E6xhOOfb5-189" value="" style="endArrow=none;html=1;rounded=0;entryX=0.5;entryY=1;entryDx=0;entryDy=0;exitX=0.25;exitY=0;exitDx=0;exitDy=0;" parent="1" source="BJYVsuKNDV1E6xhOOfb5-24" target="BJYVsuKNDV1E6xhOOfb5-188" edge="1">
          <mxGeometry width="50" height="50" relative="1" as="geometry">
            <mxPoint x="-180" y="280" as="sourcePoint" />
            <mxPoint x="-130" y="230" as="targetPoint" />
          </mxGeometry>
        </mxCell>
        <mxCell id="BJYVsuKNDV1E6xhOOfb5-242" value="&lt;font style=&quot;font-size: 14px;&quot;&gt;1&lt;/font&gt;" style="edgeLabel;html=1;align=center;verticalAlign=middle;resizable=0;points=[];" parent="BJYVsuKNDV1E6xhOOfb5-189" vertex="1" connectable="0">
          <mxGeometry x="0.9253" y="-2" relative="1" as="geometry">
            <mxPoint x="8" y="-2" as="offset" />
          </mxGeometry>
        </mxCell>
        <mxCell id="BJYVsuKNDV1E6xhOOfb5-190" value="" style="endArrow=none;html=1;rounded=0;entryX=0;entryY=0.5;entryDx=0;entryDy=0;exitX=1;exitY=0.5;exitDx=0;exitDy=0;" parent="1" source="BJYVsuKNDV1E6xhOOfb5-188" target="BJYVsuKNDV1E6xhOOfb5-11" edge="1">
          <mxGeometry width="50" height="50" relative="1" as="geometry">
            <mxPoint x="-140" y="100" as="sourcePoint" />
            <mxPoint x="-90" y="50" as="targetPoint" />
          </mxGeometry>
        </mxCell>
        <mxCell id="BJYVsuKNDV1E6xhOOfb5-239" value="&lt;font style=&quot;font-size: 14px;&quot;&gt;n&lt;/font&gt;" style="edgeLabel;html=1;align=center;verticalAlign=middle;resizable=0;points=[];" parent="BJYVsuKNDV1E6xhOOfb5-190" vertex="1" connectable="0">
          <mxGeometry x="-0.8556" relative="1" as="geometry">
            <mxPoint x="-12" y="-15" as="offset" />
          </mxGeometry>
        </mxCell>
        <mxCell id="BJYVsuKNDV1E6xhOOfb5-191" value="" style="endArrow=none;html=1;rounded=0;exitX=1;exitY=0.5;exitDx=0;exitDy=0;entryX=0.25;entryY=1;entryDx=0;entryDy=0;" parent="1" source="BJYVsuKNDV1E6xhOOfb5-130" target="BJYVsuKNDV1E6xhOOfb5-1" edge="1">
          <mxGeometry width="50" height="50" relative="1" as="geometry">
            <mxPoint x="500" y="570" as="sourcePoint" />
            <mxPoint x="550" y="520" as="targetPoint" />
            <Array as="points">
              <mxPoint x="285" y="345" />
            </Array>
          </mxGeometry>
        </mxCell>
        <mxCell id="BJYVsuKNDV1E6xhOOfb5-228" value="&lt;font style=&quot;font-size: 14px;&quot;&gt;1&lt;/font&gt;" style="edgeLabel;html=1;align=center;verticalAlign=middle;resizable=0;points=[];" parent="BJYVsuKNDV1E6xhOOfb5-191" vertex="1" connectable="0">
          <mxGeometry x="-0.9167" y="1" relative="1" as="geometry">
            <mxPoint x="-3" y="-14" as="offset" />
          </mxGeometry>
        </mxCell>
        <mxCell id="BJYVsuKNDV1E6xhOOfb5-192" value="&lt;font style=&quot;font-size: 14px;&quot;&gt;创建答案&lt;/font&gt;" style="rhombus;whiteSpace=wrap;html=1;fillColor=#FFB366;fontColor=#333333;strokeColor=#666666;fillStyle=hatch;" parent="1" vertex="1">
          <mxGeometry x="505.62" y="320" width="120" height="50" as="geometry" />
        </mxCell>
        <mxCell id="BJYVsuKNDV1E6xhOOfb5-193" value="" style="endArrow=none;html=1;rounded=0;exitX=0.75;exitY=1;exitDx=0;exitDy=0;entryX=0;entryY=0.5;entryDx=0;entryDy=0;" parent="1" source="BJYVsuKNDV1E6xhOOfb5-1" target="BJYVsuKNDV1E6xhOOfb5-192" edge="1">
          <mxGeometry width="50" height="50" relative="1" as="geometry">
            <mxPoint x="540" y="500" as="sourcePoint" />
            <mxPoint x="590" y="450" as="targetPoint" />
            <Array as="points">
              <mxPoint x="335" y="345" />
            </Array>
          </mxGeometry>
        </mxCell>
        <mxCell id="BJYVsuKNDV1E6xhOOfb5-226" value="&lt;font style=&quot;font-size: 14px;&quot;&gt;1&lt;/font&gt;" style="edgeLabel;html=1;align=center;verticalAlign=middle;resizable=0;points=[];" parent="BJYVsuKNDV1E6xhOOfb5-193" vertex="1" connectable="0">
          <mxGeometry x="0.918" y="3" relative="1" as="geometry">
            <mxPoint x="-2" y="-12" as="offset" />
          </mxGeometry>
        </mxCell>
        <mxCell id="BJYVsuKNDV1E6xhOOfb5-194" value="&lt;font style=&quot;font-size: 14px;&quot;&gt;&lt;u&gt;ID&lt;/u&gt;&lt;/font&gt;" style="ellipse;whiteSpace=wrap;html=1;fillColor=#d5e8d4;strokeColor=#82b366;fillStyle=hatch;" parent="1" vertex="1">
          <mxGeometry x="640.62" y="480" width="100" height="60" as="geometry" />
        </mxCell>
        <mxCell id="BJYVsuKNDV1E6xhOOfb5-195" value="&lt;font style=&quot;font-size: 14px;&quot;&gt;内容&lt;/font&gt;" style="ellipse;whiteSpace=wrap;html=1;fillColor=#d5e8d4;strokeColor=#82b366;fillStyle=hatch;" parent="1" vertex="1">
          <mxGeometry x="640.62" y="550" width="100" height="60" as="geometry" />
        </mxCell>
        <mxCell id="BJYVsuKNDV1E6xhOOfb5-196" value="&lt;font style=&quot;font-size: 14px;&quot;&gt;资源路径&lt;/font&gt;&lt;span style=&quot;color: rgba(0, 0, 0, 0); font-family: monospace; font-size: 0px; text-align: start; text-wrap-mode: nowrap;&quot;&gt;%3CmxGraphModel%3E%3Croot%3E%3CmxCell%20id%3D%220%22%2F%3E%3CmxCell%20id%3D%221%22%20parent%3D%220%22%2F%3E%3CmxCell%20id%3D%222%22%20value%3D%22%26lt%3Bfont%20style%3D%26quot%3Bfont-size%3A%2014px%3B%26quot%3B%26gt%3B%E5%86%85%E5%AE%B9%26lt%3B%2Ffont%26gt%3B%22%20style%3D%22ellipse%3BwhiteSpace%3Dwrap%3Bhtml%3D1%3B%22%20vertex%3D%221%22%20parent%3D%221%22%3E%3CmxGeometry%20x%3D%22414%22%20y%3D%221169%22%20width%3D%22100%22%20height%3D%2260%22%20as%3D%22geometry%22%2F%3E%3C%2FmxCell%3E%3C%2Froot%3E%3C%2FmxGraphModel%3E&lt;/span&gt;" style="ellipse;whiteSpace=wrap;html=1;fillColor=#d5e8d4;strokeColor=#82b366;fillStyle=hatch;" parent="1" vertex="1">
          <mxGeometry x="640.62" y="410" width="100" height="60" as="geometry" />
        </mxCell>
        <mxCell id="BJYVsuKNDV1E6xhOOfb5-197" value="&lt;span style=&quot;font-size: 14px;&quot;&gt;创建时间&lt;/span&gt;" style="ellipse;whiteSpace=wrap;html=1;fillColor=#d5e8d4;strokeColor=#82b366;fillStyle=hatch;" parent="1" vertex="1">
          <mxGeometry x="640.62" y="340" width="100" height="60" as="geometry" />
        </mxCell>
        <mxCell id="BJYVsuKNDV1E6xhOOfb5-198" value="" style="endArrow=none;html=1;rounded=0;entryX=1;entryY=0;entryDx=0;entryDy=0;" parent="1" source="BJYVsuKNDV1E6xhOOfb5-196" target="BJYVsuKNDV1E6xhOOfb5-202" edge="1">
          <mxGeometry width="50" height="50" relative="1" as="geometry">
            <mxPoint x="915.62" y="347.5" as="sourcePoint" />
            <mxPoint x="565.62" y="447.5" as="targetPoint" />
          </mxGeometry>
        </mxCell>
        <mxCell id="BJYVsuKNDV1E6xhOOfb5-199" value="" style="endArrow=none;html=1;rounded=0;entryX=0.029;entryY=0.696;entryDx=0;entryDy=0;entryPerimeter=0;exitX=1;exitY=0;exitDx=0;exitDy=0;" parent="1" source="BJYVsuKNDV1E6xhOOfb5-202" target="BJYVsuKNDV1E6xhOOfb5-197" edge="1">
          <mxGeometry width="50" height="50" relative="1" as="geometry">
            <mxPoint x="565.62" y="447.5" as="sourcePoint" />
            <mxPoint x="965.62" y="297.5" as="targetPoint" />
          </mxGeometry>
        </mxCell>
        <mxCell id="BJYVsuKNDV1E6xhOOfb5-200" value="" style="endArrow=none;html=1;rounded=0;exitX=0;exitY=0.5;exitDx=0;exitDy=0;entryX=1;entryY=1;entryDx=0;entryDy=0;" parent="1" source="BJYVsuKNDV1E6xhOOfb5-194" target="BJYVsuKNDV1E6xhOOfb5-202" edge="1">
          <mxGeometry width="50" height="50" relative="1" as="geometry">
            <mxPoint x="915.62" y="347.5" as="sourcePoint" />
            <mxPoint x="565.62" y="497.5" as="targetPoint" />
          </mxGeometry>
        </mxCell>
        <mxCell id="BJYVsuKNDV1E6xhOOfb5-201" value="" style="endArrow=none;html=1;rounded=0;exitX=1;exitY=1;exitDx=0;exitDy=0;entryX=0;entryY=0;entryDx=0;entryDy=0;" parent="1" source="BJYVsuKNDV1E6xhOOfb5-202" target="BJYVsuKNDV1E6xhOOfb5-195" edge="1">
          <mxGeometry width="50" height="50" relative="1" as="geometry">
            <mxPoint x="565.62" y="497.5" as="sourcePoint" />
            <mxPoint x="965.62" y="297.5" as="targetPoint" />
          </mxGeometry>
        </mxCell>
        <mxCell id="BJYVsuKNDV1E6xhOOfb5-202" value="&lt;span style=&quot;font-size: 14px;&quot;&gt;答案&lt;/span&gt;" style="rounded=0;whiteSpace=wrap;html=1;fillColor=#0066CC;strokeColor=#6c8ebf;fillStyle=hatch;" parent="1" vertex="1">
          <mxGeometry x="515.62" y="447.5" width="100" height="50" as="geometry" />
        </mxCell>
        <mxCell id="BJYVsuKNDV1E6xhOOfb5-203" value="" style="endArrow=none;html=1;rounded=0;entryX=0.5;entryY=1;entryDx=0;entryDy=0;" parent="1" source="BJYVsuKNDV1E6xhOOfb5-202" target="BJYVsuKNDV1E6xhOOfb5-192" edge="1">
          <mxGeometry width="50" height="50" relative="1" as="geometry">
            <mxPoint x="650.62" y="680" as="sourcePoint" />
            <mxPoint x="700.62" y="630" as="targetPoint" />
          </mxGeometry>
        </mxCell>
        <mxCell id="BJYVsuKNDV1E6xhOOfb5-227" value="&lt;font style=&quot;font-size: 14px;&quot;&gt;n&lt;/font&gt;" style="edgeLabel;html=1;align=center;verticalAlign=middle;resizable=0;points=[];" parent="BJYVsuKNDV1E6xhOOfb5-203" vertex="1" connectable="0">
          <mxGeometry x="0.5154" y="-1" relative="1" as="geometry">
            <mxPoint x="-16" as="offset" />
          </mxGeometry>
        </mxCell>
        <mxCell id="BJYVsuKNDV1E6xhOOfb5-204" value="&lt;font style=&quot;font-size: 14px;&quot;&gt;管理任务&lt;/font&gt;" style="rhombus;whiteSpace=wrap;html=1;fillColor=#FFB366;fontColor=#333333;strokeColor=#666666;fillStyle=hatch;" parent="1" vertex="1">
          <mxGeometry x="790" y="270" width="120" height="50" as="geometry" />
        </mxCell>
        <mxCell id="BJYVsuKNDV1E6xhOOfb5-205" value="" style="endArrow=none;html=1;rounded=0;entryX=0.5;entryY=1;entryDx=0;entryDy=0;exitX=0;exitY=0;exitDx=0;exitDy=0;" parent="1" source="BJYVsuKNDV1E6xhOOfb5-41" target="BJYVsuKNDV1E6xhOOfb5-204" edge="1">
          <mxGeometry width="50" height="50" relative="1" as="geometry">
            <mxPoint x="300" y="450" as="sourcePoint" />
            <mxPoint x="350" y="400" as="targetPoint" />
          </mxGeometry>
        </mxCell>
        <mxCell id="BJYVsuKNDV1E6xhOOfb5-236" value="&lt;font style=&quot;font-size: 14px;&quot;&gt;m&lt;/font&gt;" style="edgeLabel;html=1;align=center;verticalAlign=middle;resizable=0;points=[];" parent="BJYVsuKNDV1E6xhOOfb5-205" vertex="1" connectable="0">
          <mxGeometry x="0.9467" y="-1" relative="1" as="geometry">
            <mxPoint x="9" y="11" as="offset" />
          </mxGeometry>
        </mxCell>
        <mxCell id="BJYVsuKNDV1E6xhOOfb5-206" value="" style="endArrow=none;html=1;rounded=0;entryX=0;entryY=0.5;entryDx=0;entryDy=0;exitX=1;exitY=1;exitDx=0;exitDy=0;" parent="1" source="BJYVsuKNDV1E6xhOOfb5-1" target="BJYVsuKNDV1E6xhOOfb5-204" edge="1">
          <mxGeometry width="50" height="50" relative="1" as="geometry">
            <mxPoint x="410" y="450" as="sourcePoint" />
            <mxPoint x="460" y="400" as="targetPoint" />
            <Array as="points">
              <mxPoint x="360" y="300" />
            </Array>
          </mxGeometry>
        </mxCell>
        <mxCell id="BJYVsuKNDV1E6xhOOfb5-235" value="&lt;font style=&quot;font-size: 14px;&quot;&gt;n&lt;/font&gt;" style="edgeLabel;html=1;align=center;verticalAlign=middle;resizable=0;points=[];" parent="BJYVsuKNDV1E6xhOOfb5-206" vertex="1" connectable="0">
          <mxGeometry x="0.9089" y="3" relative="1" as="geometry">
            <mxPoint x="6" y="-12" as="offset" />
          </mxGeometry>
        </mxCell>
        <mxCell id="BJYVsuKNDV1E6xhOOfb5-207" value="&lt;font style=&quot;font-size: 14px;&quot;&gt;关联任务&lt;/font&gt;" style="rhombus;whiteSpace=wrap;html=1;fillColor=#FFB366;fontColor=#333333;strokeColor=#666666;fillStyle=hatch;" parent="1" vertex="1">
          <mxGeometry x="860" y="-240" width="120" height="50" as="geometry" />
        </mxCell>
        <mxCell id="BJYVsuKNDV1E6xhOOfb5-208" value="" style="endArrow=none;html=1;rounded=0;exitX=1;exitY=0.5;exitDx=0;exitDy=0;entryX=0;entryY=0.5;entryDx=0;entryDy=0;" parent="1" source="BJYVsuKNDV1E6xhOOfb5-11" target="BJYVsuKNDV1E6xhOOfb5-207" edge="1">
          <mxGeometry width="50" height="50" relative="1" as="geometry">
            <mxPoint x="510" y="200" as="sourcePoint" />
            <mxPoint x="560" y="150" as="targetPoint" />
          </mxGeometry>
        </mxCell>
        <mxCell id="BJYVsuKNDV1E6xhOOfb5-240" value="&lt;font style=&quot;font-size: 14px;&quot;&gt;n&lt;/font&gt;" style="edgeLabel;html=1;align=center;verticalAlign=middle;resizable=0;points=[];" parent="BJYVsuKNDV1E6xhOOfb5-208" vertex="1" connectable="0">
          <mxGeometry x="0.9199" y="-1" relative="1" as="geometry">
            <mxPoint x="8" y="-16" as="offset" />
          </mxGeometry>
        </mxCell>
        <mxCell id="BJYVsuKNDV1E6xhOOfb5-209" value="" style="endArrow=none;html=1;rounded=0;entryX=0.5;entryY=1;entryDx=0;entryDy=0;exitX=0.75;exitY=0;exitDx=0;exitDy=0;" parent="1" source="BJYVsuKNDV1E6xhOOfb5-41" target="BJYVsuKNDV1E6xhOOfb5-207" edge="1">
          <mxGeometry width="50" height="50" relative="1" as="geometry">
            <mxPoint x="510" y="200" as="sourcePoint" />
            <mxPoint x="560" y="150" as="targetPoint" />
          </mxGeometry>
        </mxCell>
        <mxCell id="BJYVsuKNDV1E6xhOOfb5-241" value="&lt;font style=&quot;font-size: 14px;&quot;&gt;1&lt;/font&gt;" style="edgeLabel;html=1;align=center;verticalAlign=middle;resizable=0;points=[];" parent="BJYVsuKNDV1E6xhOOfb5-209" vertex="1" connectable="0">
          <mxGeometry x="0.9635" y="-3" relative="1" as="geometry">
            <mxPoint x="7" y="14" as="offset" />
          </mxGeometry>
        </mxCell>
        <mxCell id="BJYVsuKNDV1E6xhOOfb5-210" value="" style="endArrow=none;html=1;rounded=0;exitX=1;exitY=0.75;exitDx=0;exitDy=0;entryX=0;entryY=0.5;entryDx=0;entryDy=0;" parent="1" source="BJYVsuKNDV1E6xhOOfb5-24" target="BJYVsuKNDV1E6xhOOfb5-169" edge="1">
          <mxGeometry width="50" height="50" relative="1" as="geometry">
            <mxPoint x="-90" y="640" as="sourcePoint" />
            <mxPoint x="-40" y="590" as="targetPoint" />
            <Array as="points">
              <mxPoint x="-80" y="708" />
              <mxPoint x="-80" y="1125" />
            </Array>
          </mxGeometry>
        </mxCell>
        <mxCell id="BJYVsuKNDV1E6xhOOfb5-211" value="&lt;font style=&quot;font-size: 14px;&quot;&gt;1&lt;/font&gt;" style="edgeLabel;html=1;align=center;verticalAlign=middle;resizable=0;points=[];" parent="BJYVsuKNDV1E6xhOOfb5-210" vertex="1" connectable="0">
          <mxGeometry x="0.8476" relative="1" as="geometry">
            <mxPoint x="30" y="-15" as="offset" />
          </mxGeometry>
        </mxCell>
        <mxCell id="BJYVsuKNDV1E6xhOOfb5-212" value="&lt;font style=&quot;font-size: 14px;&quot;&gt;操作记录&lt;/font&gt;" style="rounded=0;whiteSpace=wrap;html=1;fillColor=#0066CC;strokeColor=#6c8ebf;fillStyle=hatch;" parent="1" vertex="1">
          <mxGeometry x="250" y="825" width="100" height="50" as="geometry" />
        </mxCell>
        <mxCell id="BJYVsuKNDV1E6xhOOfb5-214" value="&lt;font style=&quot;font-size: 14px;&quot;&gt;&lt;u&gt;ID&lt;/u&gt;&lt;/font&gt;" style="ellipse;whiteSpace=wrap;html=1;fillColor=#d5e8d4;strokeColor=#82b366;fillStyle=hatch;" parent="1" vertex="1">
          <mxGeometry x="250" y="910" width="100" height="60" as="geometry" />
        </mxCell>
        <mxCell id="BJYVsuKNDV1E6xhOOfb5-215" value="&lt;font style=&quot;font-size: 14px;&quot;&gt;菜币变化&lt;/font&gt;" style="ellipse;whiteSpace=wrap;html=1;fillColor=#d5e8d4;strokeColor=#82b366;fillStyle=hatch;" parent="1" vertex="1">
          <mxGeometry x="400" y="900" width="100" height="60" as="geometry" />
        </mxCell>
        <mxCell id="BJYVsuKNDV1E6xhOOfb5-216" value="&lt;font style=&quot;font-size: 14px;&quot;&gt;类型&lt;/font&gt;" style="ellipse;whiteSpace=wrap;html=1;fillColor=#d5e8d4;strokeColor=#82b366;fillStyle=hatch;" parent="1" vertex="1">
          <mxGeometry x="390" y="820" width="100" height="60" as="geometry" />
        </mxCell>
        <mxCell id="BJYVsuKNDV1E6xhOOfb5-217" value="" style="endArrow=none;html=1;rounded=0;exitX=1;exitY=0.5;exitDx=0;exitDy=0;" parent="1" source="BJYVsuKNDV1E6xhOOfb5-212" target="BJYVsuKNDV1E6xhOOfb5-216" edge="1">
          <mxGeometry width="50" height="50" relative="1" as="geometry">
            <mxPoint x="140" y="820" as="sourcePoint" />
            <mxPoint x="389.99999999999" y="850" as="targetPoint" />
          </mxGeometry>
        </mxCell>
        <mxCell id="BJYVsuKNDV1E6xhOOfb5-218" value="" style="endArrow=none;html=1;rounded=0;exitX=1;exitY=1;exitDx=0;exitDy=0;" parent="1" source="BJYVsuKNDV1E6xhOOfb5-212" target="BJYVsuKNDV1E6xhOOfb5-215" edge="1">
          <mxGeometry width="50" height="50" relative="1" as="geometry">
            <mxPoint x="140" y="820" as="sourcePoint" />
            <mxPoint x="404.56272537550285" y="918.8360720992582" as="targetPoint" />
          </mxGeometry>
        </mxCell>
        <mxCell id="BJYVsuKNDV1E6xhOOfb5-219" value="" style="endArrow=none;html=1;rounded=0;entryX=0.5;entryY=0;entryDx=0;entryDy=0;exitX=0.5;exitY=1;exitDx=0;exitDy=0;" parent="1" source="BJYVsuKNDV1E6xhOOfb5-212" target="BJYVsuKNDV1E6xhOOfb5-214" edge="1">
          <mxGeometry width="50" height="50" relative="1" as="geometry">
            <mxPoint x="140" y="820" as="sourcePoint" />
            <mxPoint x="190" y="770" as="targetPoint" />
          </mxGeometry>
        </mxCell>
        <mxCell id="BJYVsuKNDV1E6xhOOfb5-220" value="&lt;font style=&quot;font-size: 14px;&quot;&gt;产生&lt;/font&gt;" style="rhombus;whiteSpace=wrap;html=1;fillColor=#FFB366;fontColor=#333333;strokeColor=#666666;fillStyle=hatch;" parent="1" vertex="1">
          <mxGeometry x="240" y="655" width="120" height="50" as="geometry" />
        </mxCell>
        <mxCell id="BJYVsuKNDV1E6xhOOfb5-221" value="" style="endArrow=none;html=1;rounded=0;entryX=0.401;entryY=1.004;entryDx=0;entryDy=0;exitX=0.5;exitY=0;exitDx=0;exitDy=0;entryPerimeter=0;" parent="1" source="BJYVsuKNDV1E6xhOOfb5-220" target="BJYVsuKNDV1E6xhOOfb5-1" edge="1">
          <mxGeometry width="50" height="50" relative="1" as="geometry">
            <mxPoint x="200" y="650" as="sourcePoint" />
            <mxPoint x="250" y="600" as="targetPoint" />
          </mxGeometry>
        </mxCell>
        <mxCell id="BJYVsuKNDV1E6xhOOfb5-223" value="&lt;font style=&quot;font-size: 14px;&quot;&gt;1&lt;/font&gt;" style="edgeLabel;html=1;align=center;verticalAlign=middle;resizable=0;points=[];" parent="BJYVsuKNDV1E6xhOOfb5-221" vertex="1" connectable="0">
          <mxGeometry x="-0.8976" y="-1" relative="1" as="geometry">
            <mxPoint x="9" y="5" as="offset" />
          </mxGeometry>
        </mxCell>
        <mxCell id="BJYVsuKNDV1E6xhOOfb5-222" value="" style="endArrow=none;html=1;rounded=0;entryX=0.5;entryY=1;entryDx=0;entryDy=0;exitX=0.5;exitY=0;exitDx=0;exitDy=0;" parent="1" source="BJYVsuKNDV1E6xhOOfb5-212" target="BJYVsuKNDV1E6xhOOfb5-220" edge="1">
          <mxGeometry width="50" height="50" relative="1" as="geometry">
            <mxPoint x="260" y="800" as="sourcePoint" />
            <mxPoint x="310" y="750" as="targetPoint" />
          </mxGeometry>
        </mxCell>
        <mxCell id="BJYVsuKNDV1E6xhOOfb5-224" value="&lt;font style=&quot;font-size: 14px;&quot;&gt;n&lt;/font&gt;" style="edgeLabel;html=1;align=center;verticalAlign=middle;resizable=0;points=[];" parent="BJYVsuKNDV1E6xhOOfb5-222" vertex="1" connectable="0">
          <mxGeometry x="0.5296" y="-2" relative="1" as="geometry">
            <mxPoint x="8" y="-13" as="offset" />
          </mxGeometry>
        </mxCell>
        <mxCell id="BJYVsuKNDV1E6xhOOfb5-225" value="&lt;span style=&quot;font-size: 14px;&quot;&gt;记录&lt;/span&gt;" style="rhombus;whiteSpace=wrap;html=1;fillColor=#FFB366;fontColor=#333333;strokeColor=#666666;fillStyle=hatch;" parent="1" vertex="1">
          <mxGeometry x="20" y="825" width="120" height="50" as="geometry" />
        </mxCell>
        <mxCell id="BJYVsuKNDV1E6xhOOfb5-231" value="" style="endArrow=none;html=1;rounded=0;exitX=1;exitY=0.5;exitDx=0;exitDy=0;entryX=0;entryY=0.5;entryDx=0;entryDy=0;" parent="1" source="BJYVsuKNDV1E6xhOOfb5-24" target="BJYVsuKNDV1E6xhOOfb5-225" edge="1">
          <mxGeometry width="50" height="50" relative="1" as="geometry">
            <mxPoint x="-40" y="820" as="sourcePoint" />
            <mxPoint x="10" y="770" as="targetPoint" />
            <Array as="points">
              <mxPoint x="-40" y="695" />
              <mxPoint x="-40" y="850" />
            </Array>
          </mxGeometry>
        </mxCell>
        <mxCell id="BJYVsuKNDV1E6xhOOfb5-233" value="&lt;font style=&quot;font-size: 14px;&quot;&gt;1&lt;/font&gt;" style="edgeLabel;html=1;align=center;verticalAlign=middle;resizable=0;points=[];" parent="BJYVsuKNDV1E6xhOOfb5-231" vertex="1" connectable="0">
          <mxGeometry x="0.9259" relative="1" as="geometry">
            <mxPoint x="-6" y="-10" as="offset" />
          </mxGeometry>
        </mxCell>
        <mxCell id="BJYVsuKNDV1E6xhOOfb5-232" value="" style="endArrow=none;html=1;rounded=0;entryX=0;entryY=0.5;entryDx=0;entryDy=0;exitX=1;exitY=0.5;exitDx=0;exitDy=0;" parent="1" source="BJYVsuKNDV1E6xhOOfb5-225" target="BJYVsuKNDV1E6xhOOfb5-212" edge="1">
          <mxGeometry width="50" height="50" relative="1" as="geometry">
            <mxPoint x="-40" y="820" as="sourcePoint" />
            <mxPoint x="10" y="770" as="targetPoint" />
          </mxGeometry>
        </mxCell>
        <mxCell id="BJYVsuKNDV1E6xhOOfb5-234" value="&lt;font style=&quot;font-size: 14px;&quot;&gt;n&lt;/font&gt;" style="edgeLabel;html=1;align=center;verticalAlign=middle;resizable=0;points=[];" parent="BJYVsuKNDV1E6xhOOfb5-232" vertex="1" connectable="0">
          <mxGeometry x="-0.6898" y="-2" relative="1" as="geometry">
            <mxPoint x="-8" y="-12" as="offset" />
          </mxGeometry>
        </mxCell>
        <mxCell id="FHIrvvsQ9IbrhuJcy2H1-1" value="&lt;font style=&quot;font-size: 14px;&quot;&gt;回复评论&lt;/font&gt;" style="rhombus;whiteSpace=wrap;html=1;fillColor=#FFB366;fontColor=#333333;strokeColor=#666666;fillStyle=hatch;" parent="1" vertex="1">
          <mxGeometry x="150" y="390" width="120" height="50" as="geometry" />
        </mxCell>
        <mxCell id="FHIrvvsQ9IbrhuJcy2H1-2" value="" style="endArrow=none;html=1;rounded=0;entryX=0.5;entryY=1;entryDx=0;entryDy=0;exitX=1;exitY=0.25;exitDx=0;exitDy=0;" parent="1" source="BJYVsuKNDV1E6xhOOfb5-129" target="FHIrvvsQ9IbrhuJcy2H1-1" edge="1">
          <mxGeometry width="50" height="50" relative="1" as="geometry">
            <mxPoint x="200" y="640" as="sourcePoint" />
            <mxPoint x="250" y="590" as="targetPoint" />
            <Array as="points">
              <mxPoint x="210" y="463" />
            </Array>
          </mxGeometry>
        </mxCell>
        <mxCell id="FHIrvvsQ9IbrhuJcy2H1-5" value="n" style="edgeLabel;html=1;align=center;verticalAlign=middle;resizable=0;points=[];" parent="FHIrvvsQ9IbrhuJcy2H1-2" vertex="1" connectable="0">
          <mxGeometry x="0.91" y="-1" relative="1" as="geometry">
            <mxPoint x="9" y="3" as="offset" />
          </mxGeometry>
        </mxCell>
        <mxCell id="FHIrvvsQ9IbrhuJcy2H1-3" value="" style="endArrow=none;html=1;rounded=0;entryX=0;entryY=0.5;entryDx=0;entryDy=0;exitX=0.75;exitY=0;exitDx=0;exitDy=0;" parent="1" source="BJYVsuKNDV1E6xhOOfb5-129" target="FHIrvvsQ9IbrhuJcy2H1-1" edge="1">
          <mxGeometry width="50" height="50" relative="1" as="geometry">
            <mxPoint x="200" y="640" as="sourcePoint" />
            <mxPoint x="250" y="590" as="targetPoint" />
            <Array as="points">
              <mxPoint x="105" y="415" />
            </Array>
          </mxGeometry>
        </mxCell>
        <mxCell id="FHIrvvsQ9IbrhuJcy2H1-4" value="1" style="edgeLabel;html=1;align=center;verticalAlign=middle;resizable=0;points=[];" parent="FHIrvvsQ9IbrhuJcy2H1-3" vertex="1" connectable="0">
          <mxGeometry x="0.864" relative="1" as="geometry">
            <mxPoint x="-5" y="-12" as="offset" />
          </mxGeometry>
        </mxCell>
        <mxCell id="FHIrvvsQ9IbrhuJcy2H1-6" value="&lt;span style=&quot;font-size: 14px;&quot;&gt;确认&lt;/span&gt;" style="rhombus;whiteSpace=wrap;html=1;fillColor=#FFB366;fontColor=#333333;strokeColor=#666666;fillStyle=hatch;" parent="1" vertex="1">
          <mxGeometry x="354" y="447.5" width="120" height="50" as="geometry" />
        </mxCell>
        <mxCell id="FHIrvvsQ9IbrhuJcy2H1-7" value="" style="endArrow=none;html=1;rounded=0;entryX=0;entryY=0.5;entryDx=0;entryDy=0;exitX=1;exitY=0.5;exitDx=0;exitDy=0;" parent="1" source="FHIrvvsQ9IbrhuJcy2H1-6" target="BJYVsuKNDV1E6xhOOfb5-202" edge="1">
          <mxGeometry width="50" height="50" relative="1" as="geometry">
            <mxPoint x="490.62" y="472.5" as="sourcePoint" />
            <mxPoint x="400.62" y="460" as="targetPoint" />
          </mxGeometry>
        </mxCell>
        <mxCell id="FHIrvvsQ9IbrhuJcy2H1-10" value="n" style="edgeLabel;html=1;align=center;verticalAlign=middle;resizable=0;points=[];" parent="FHIrvvsQ9IbrhuJcy2H1-7" vertex="1" connectable="0">
          <mxGeometry x="-0.3245" y="1" relative="1" as="geometry">
            <mxPoint x="-8" y="-11" as="offset" />
          </mxGeometry>
        </mxCell>
        <mxCell id="FHIrvvsQ9IbrhuJcy2H1-8" value="" style="endArrow=none;html=1;rounded=0;exitX=0.591;exitY=1.009;exitDx=0;exitDy=0;exitPerimeter=0;entryX=0.005;entryY=0.505;entryDx=0;entryDy=0;entryPerimeter=0;" parent="1" target="FHIrvvsQ9IbrhuJcy2H1-6" edge="1">
          <mxGeometry width="50" height="50" relative="1" as="geometry">
            <mxPoint x="319.0999999999999" y="170.00000000000006" as="sourcePoint" />
            <mxPoint x="354" y="472.05" as="targetPoint" />
            <Array as="points">
              <mxPoint x="320" y="472.55" />
            </Array>
          </mxGeometry>
        </mxCell>
        <mxCell id="FHIrvvsQ9IbrhuJcy2H1-9" value="1" style="edgeLabel;html=1;align=center;verticalAlign=middle;resizable=0;points=[];" parent="FHIrvvsQ9IbrhuJcy2H1-8" vertex="1" connectable="0">
          <mxGeometry x="0.9232" y="1" relative="1" as="geometry">
            <mxPoint x="9" y="-12" as="offset" />
          </mxGeometry>
        </mxCell>
      </root>
    </mxGraphModel>
  </diagram>
</mxfile>
